{
    "asset" : {
        "generator" : "Khronos glTF Blender I/O v3.3.27",
        "version" : "2.0"
    },
    "scene" : 0,
    "scenes" : [
        {
            "name" : "Scene",
            "nodes" : [
                0,
                1,
                2,
                3,
                4,
                5,
                6,
                7,
                8
            ]
        }
    ],
    "nodes" : [
        {
            "mesh" : 0,
            "name" : "Cube.107",
            "rotation" : [
                0.7105650305747986,
                0,
                -0.703631579875946,
                0
            ],
            "scale" : [
                -4.886786937713623,
                -2.2789788246154785,
                -7.078294277191162
            ],
            "translation" : [
                11.393003463745117,
                -3.0203137397766113,
                24.00975799560547
            ]
        },
        {
            "mesh" : 1,
            "name" : "Cube.105",
            "rotation" : [
                0,
                0.7071068286895752,
                0,
                0.7071068286895752
            ],
            "scale" : [
                0.8907206654548645,
                0.8907206654548645,
                0.8907206654548645
            ],
            "translation" : [
                -0.056134771555662155,
                1.577458143234253,
                23.716636657714844
            ]
        },
        {
            "mesh" : 2,
            "name" : "Cube.104",
            "rotation" : [
                0,
                0.7071068286895752,
                0,
                0.7071068286895752
            ],
            "scale" : [
                1.0164849758148193,
                1.0164849758148193,
                1.0164849758148193
            ],
            "translation" : [
                -0.056134771555662155,
                2.2411928176879883,
                23.716636657714844
            ]
        },
        {
            "mesh" : 3,
            "name" : "Cube.103",
            "rotation" : [
                0,
                0.7071068286895752,
                0,
                0.7071068286895752
            ],
            "scale" : [
                1.3220674991607666,
                1.3220674991607666,
                1.3220674991607666
            ],
            "translation" : [
                -0.056134771555662155,
                3.900529146194458,
                23.716636657714844
            ]
        },
        {
            "mesh" : 4,
            "name" : "Cube.102",
            "rotation" : [
                0,
                0.7071068286895752,
                0,
                0.7071068286895752
            ],
            "scale" : [
                1.487493634223938,
                1.487493634223938,
                1.487493634223938
            ],
            "translation" : [
                -0.056134771555662155,
                4.840818405151367,
                23.716636657714844
            ]
        },
        {
            "mesh" : 5,
            "name" : "Cube.101",
            "rotation" : [
                0,
                0.7071068286895752,
                0,
                0.7071068286895752
            ],
            "scale" : [
                1.6306085586547852,
                1.6306085586547852,
                1.6306085586547852
            ],
            "translation" : [
                -0.056134771555662155,
                5.591470718383789,
                23.716636657714844
            ]
        },
        {
            "mesh" : 6,
            "name" : "Cube.100",
            "rotation" : [
                0,
                0.7071068286895752,
                0,
                0.7071068286895752
            ],
            "scale" : [
                1.164137840270996,
                1.164137840270996,
                1.164137840270996
            ],
            "translation" : [
                -0.056134771555662155,
                3.0945651531219482,
                23.716636657714844
            ]
        },
        {
            "mesh" : 7,
            "name" : "Cube.099",
            "rotation" : [
                0,
                0.7071068286895752,
                0,
                0.7071068286895752
            ],
            "scale" : [
                0.7761257290840149,
                0.7761257290840149,
                0.7761257290840149
            ],
            "translation" : [
                -0.056134771555662155,
                0.9611334800720215,
                23.716636657714844
            ]
        },
        {
            "mesh" : 8,
            "name" : "Cube.088",
            "rotation" : [
                0,
                -0.703619658946991,
                0,
                0.7105768322944641
            ],
            "scale" : [
                4.886786937713623,
                2.2789788246154785,
                7.078294277191162
            ],
            "translation" : [
                -11.933807373046875,
                -3.0203137397766113,
                24.00975799560547
            ]
        }
    ],
    "materials" : [
        {
            "doubleSided" : true,
            "name" : "cream.021",
            "pbrMetallicRoughness" : {
                "baseColorFactor" : [
                    0.9999988079071045,
                    0.973444402217865,
                    0.8307698369026184,
                    1
                ],
                "metallicFactor" : 0
            }
        },
        {
            "doubleSided" : true,
            "name" : "blue.016",
            "pbrMetallicRoughness" : {
                "baseColorFactor" : [
                    0.4620759189128876,
                    0.7681505680084229,
                    0.8962694406509399,
                    1
                ],
                "metallicFactor" : 0
            }
        },
        {
            "doubleSided" : true,
            "name" : "turquoise.002",
            "pbrMetallicRoughness" : {
                "baseColorFactor" : [
                    0.7454031109809875,
                    0.9999989867210388,
                    1,
                    1
                ],
                "metallicFactor" : 0
            }
        },
        {
            "doubleSided" : true,
            "name" : "yellow.007",
            "pbrMetallicRoughness" : {
                "baseColorFactor" : [
                    0.9386851191520691,
                    0.8796218037605286,
                    0.42326775193214417,
                    1
                ],
                "metallicFactor" : 0,
                "roughnessFactor" : 0.5
            }
        },
        {
            "doubleSided" : true,
            "name" : "orange.021",
            "pbrMetallicRoughness" : {
                "baseColorFactor" : [
                    0.9559730291366577,
                    0.577579915523529,
                    0.3139888346195221,
                    1
                ],
                "metallicFactor" : 0
            }
        },
        {
            "doubleSided" : true,
            "name" : "red.015",
            "pbrMetallicRoughness" : {
                "baseColorFactor" : [
                    0.9559731483459473,
                    0.3515321612358093,
                    0.35153263807296753,
                    1
                ],
                "metallicFactor" : 0
            }
        },
        {
            "doubleSided" : true,
            "name" : "green.016",
            "pbrMetallicRoughness" : {
                "baseColorFactor" : [
                    0.5271141529083252,
                    0.8227852582931519,
                    0.7304609417915344,
                    1
                ],
                "metallicFactor" : 0
            }
        },
        {
            "doubleSided" : true,
            "name" : "purple.016",
            "pbrMetallicRoughness" : {
                "baseColorFactor" : [
                    0.6307563185691833,
                    0.6583741307258606,
                    0.9473062753677368,
                    1
                ],
                "metallicFactor" : 0
            }
        }
    ],
    "meshes" : [
        {
            "name" : "Cube.111",
            "primitives" : [
                {
                    "attributes" : {
                        "POSITION" : 0,
                        "NORMAL" : 1,
                        "TEXCOORD_0" : 2
                    },
                    "indices" : 3,
                    "material" : 0
                }
            ]
        },
        {
            "name" : "Cube.109",
            "primitives" : [
                {
                    "attributes" : {
                        "POSITION" : 4,
                        "NORMAL" : 5,
                        "TEXCOORD_0" : 6
                    },
                    "indices" : 7,
                    "material" : 1
                }
            ]
        },
        {
            "name" : "Cube.108",
            "primitives" : [
                {
                    "attributes" : {
                        "POSITION" : 8,
                        "NORMAL" : 9,
                        "TEXCOORD_0" : 10
                    },
                    "indices" : 7,
                    "material" : 2
                }
            ]
        },
        {
            "name" : "Cube.107",
            "primitives" : [
                {
                    "attributes" : {
                        "POSITION" : 11,
                        "NORMAL" : 12,
                        "TEXCOORD_0" : 13
                    },
                    "indices" : 7,
                    "material" : 3
                }
            ]
        },
        {
            "name" : "Cube.106",
            "primitives" : [
                {
                    "attributes" : {
                        "POSITION" : 14,
                        "NORMAL" : 15,
                        "TEXCOORD_0" : 16
                    },
                    "indices" : 7,
                    "material" : 4
                }
            ]
        },
        {
            "name" : "Cube.105",
            "primitives" : [
                {
                    "attributes" : {
                        "POSITION" : 17,
                        "NORMAL" : 18,
                        "TEXCOORD_0" : 19
                    },
                    "indices" : 7,
                    "material" : 5
                }
            ]
        },
        {
            "name" : "Cube.104",
            "primitives" : [
                {
                    "attributes" : {
                        "POSITION" : 20,
                        "NORMAL" : 21,
                        "TEXCOORD_0" : 22
                    },
                    "indices" : 7,
                    "material" : 6
                }
            ]
        },
        {
            "name" : "Cube.103",
            "primitives" : [
                {
                    "attributes" : {
                        "POSITION" : 23,
                        "NORMAL" : 24,
                        "TEXCOORD_0" : 25
                    },
                    "indices" : 7,
                    "material" : 7
                }
            ]
        },
        {
            "name" : "Cube.090",
            "primitives" : [
                {
                    "attributes" : {
                        "POSITION" : 26,
                        "NORMAL" : 27,
                        "TEXCOORD_0" : 28
                    },
                    "indices" : 3,
                    "material" : 0
                }
            ]
        }
    ],
    "accessors" : [
        {
            "bufferView" : 0,
            "componentType" : 5126,
            "count" : 692,
            "max" : [
                0.8633848428726196,
                1.1770524978637695,
                0.8380328416824341
            ],
            "min" : [
                -0.8472833633422852,
                -0.825322687625885,
                -0.8591544032096863
            ],
            "type" : "VEC3"
        },
        {
            "bufferView" : 1,
            "componentType" : 5126,
            "count" : 692,
            "type" : "VEC3"
        },
        {
            "bufferView" : 2,
            "componentType" : 5126,
            "count" : 692,
            "type" : "VEC2"
        },
        {
            "bufferView" : 3,
            "componentType" : 5123,
            "count" : 3684,
            "type" : "SCALAR"
        },
        {
            "bufferView" : 4,
            "componentType" : 5126,
            "count" : 6394,
            "max" : [
                0.9166910648345947,
                4.85615873336792,
                10.037952423095703
            ],
            "min" : [
                -0.9166956543922424,
                -5.412271976470947,
                -10.030885696411133
            ],
            "type" : "VEC3"
        },
        {
            "bufferView" : 5,
            "componentType" : 5126,
            "count" : 6394,
            "type" : "VEC3"
        },
        {
            "bufferView" : 6,
            "componentType" : 5126,
            "count" : 6394,
            "type" : "VEC2"
        },
        {
            "bufferView" : 7,
            "componentType" : 5123,
            "count" : 7680,
            "type" : "SCALAR"
        },
        {
            "bufferView" : 8,
            "componentType" : 5126,
            "count" : 6394,
            "max" : [
                0.9166910648345947,
                4.85615873336792,
                10.037952423095703
            ],
            "min" : [
                -0.9166956543922424,
                -5.412271976470947,
                -10.030885696411133
            ],
            "type" : "VEC3"
        },
        {
            "bufferView" : 9,
            "componentType" : 5126,
            "count" : 6394,
            "type" : "VEC3"
        },
        {
            "bufferView" : 10,
            "componentType" : 5126,
            "count" : 6394,
            "type" : "VEC2"
        },
        {
            "bufferView" : 11,
            "componentType" : 5126,
            "count" : 6394,
            "max" : [
                0.9166910648345947,
                4.85615873336792,
                10.037952423095703
            ],
            "min" : [
                -0.9166956543922424,
                -5.412271976470947,
                -10.030885696411133
            ],
            "type" : "VEC3"
        },
        {
            "bufferView" : 12,
            "componentType" : 5126,
            "count" : 6394,
            "type" : "VEC3"
        },
        {
            "bufferView" : 13,
            "componentType" : 5126,
            "count" : 6394,
            "type" : "VEC2"
        },
        {
            "bufferView" : 14,
            "componentType" : 5126,
            "count" : 6394,
            "max" : [
                0.9166910648345947,
                4.85615873336792,
                10.037952423095703
            ],
            "min" : [
                -0.9166956543922424,
                -5.412271976470947,
                -10.030885696411133
            ],
            "type" : "VEC3"
        },
        {
            "bufferView" : 15,
            "componentType" : 5126,
            "count" : 6394,
            "type" : "VEC3"
        },
        {
            "bufferView" : 16,
            "componentType" : 5126,
            "count" : 6394,
            "type" : "VEC2"
        },
        {
            "bufferView" : 17,
            "componentType" : 5126,
            "count" : 6394,
            "max" : [
                0.9166910648345947,
                4.85615873336792,
                10.037952423095703
            ],
            "min" : [
                -0.9166956543922424,
                -5.412271976470947,
                -10.030885696411133
            ],
            "type" : "VEC3"
        },
        {
            "bufferView" : 18,
            "componentType" : 5126,
            "count" : 6394,
            "type" : "VEC3"
        },
        {
            "bufferView" : 19,
            "componentType" : 5126,
            "count" : 6394,
            "type" : "VEC2"
        },
        {
            "bufferView" : 20,
            "componentType" : 5126,
            "count" : 6394,
            "max" : [
                0.9166910648345947,
                4.85615873336792,
                10.037952423095703
            ],
            "min" : [
                -0.9166956543922424,
                -5.412271976470947,
                -10.030885696411133
            ],
            "type" : "VEC3"
        },
        {
            "bufferView" : 21,
            "componentType" : 5126,
            "count" : 6394,
            "type" : "VEC3"
        },
        {
            "bufferView" : 22,
            "componentType" : 5126,
            "count" : 6394,
            "type" : "VEC2"
        },
        {
            "bufferView" : 23,
            "componentType" : 5126,
            "count" : 6394,
            "max" : [
                0.9166910648345947,
                4.85615873336792,
                10.037952423095703
            ],
            "min" : [
                -0.9166956543922424,
                -5.412271976470947,
                -10.030885696411133
            ],
            "type" : "VEC3"
        },
        {
            "bufferView" : 24,
            "componentType" : 5126,
            "count" : 6394,
            "type" : "VEC3"
        },
        {
            "bufferView" : 25,
            "componentType" : 5126,
            "count" : 6394,
            "type" : "VEC2"
        },
        {
            "bufferView" : 26,
            "componentType" : 5126,
            "count" : 692,
            "max" : [
                0.8633848428726196,
                1.1770524978637695,
                0.8380328416824341
            ],
            "min" : [
                -0.8472833633422852,
                -0.825322687625885,
                -0.8591544032096863
            ],
            "type" : "VEC3"
        },
        {
            "bufferView" : 27,
            "componentType" : 5126,
            "count" : 692,
            "type" : "VEC3"
        },
        {
            "bufferView" : 28,
            "componentType" : 5126,
            "count" : 692,
            "type" : "VEC2"
        }
    ],
    "bufferViews" : [
        {
            "buffer" : 0,
            "byteLength" : 8304,
            "byteOffset" : 0,
            "target" : 34962
        },
        {
            "buffer" : 0,
            "byteLength" : 8304,
            "byteOffset" : 8304,
            "target" : 34962
        },
        {
            "buffer" : 0,
            "byteLength" : 5536,
            "byteOffset" : 16608,
            "target" : 34962
        },
        {
            "buffer" : 0,
            "byteLength" : 7368,
            "byteOffset" : 22144,
            "target" : 34963
        },
        {
            "buffer" : 0,
            "byteLength" : 76728,
            "byteOffset" : 29512,
            "target" : 34962
        },
        {
            "buffer" : 0,
            "byteLength" : 76728,
            "byteOffset" : 106240,
            "target" : 34962
        },
        {
            "buffer" : 0,
            "byteLength" : 51152,
            "byteOffset" : 182968,
            "target" : 34962
        },
        {
            "buffer" : 0,
            "byteLength" : 15360,
            "byteOffset" : 234120,
            "target" : 34963
        },
        {
            "buffer" : 0,
            "byteLength" : 76728,
            "byteOffset" : 249480,
            "target" : 34962
        },
        {
            "buffer" : 0,
            "byteLength" : 76728,
            "byteOffset" : 326208,
            "target" : 34962
        },
        {
            "buffer" : 0,
            "byteLength" : 51152,
            "byteOffset" : 402936,
            "target" : 34962
        },
        {
            "buffer" : 0,
            "byteLength" : 76728,
            "byteOffset" : 454088,
            "target" : 34962
        },
        {
            "buffer" : 0,
            "byteLength" : 76728,
            "byteOffset" : 530816,
            "target" : 34962
        },
        {
            "buffer" : 0,
            "byteLength" : 51152,
            "byteOffset" : 607544,
            "target" : 34962
        },
        {
            "buffer" : 0,
            "byteLength" : 76728,
            "byteOffset" : 658696,
            "target" : 34962
        },
        {
            "buffer" : 0,
            "byteLength" : 76728,
            "byteOffset" : 735424,
            "target" : 34962
        },
        {
            "buffer" : 0,
            "byteLength" : 51152,
            "byteOffset" : 812152,
            "target" : 34962
        },
        {
            "buffer" : 0,
            "byteLength" : 76728,
            "byteOffset" : 863304,
            "target" : 34962
        },
        {
            "buffer" : 0,
            "byteLength" : 76728,
            "byteOffset" : 940032,
            "target" : 34962
        },
        {
            "buffer" : 0,
            "byteLength" : 51152,
            "byteOffset" : 1016760,
            "target" : 34962
        },
        {
            "buffer" : 0,
            "byteLength" : 76728,
            "byteOffset" : 1067912,
            "target" : 34962
        },
        {
            "buffer" : 0,
            "byteLength" : 76728,
            "byteOffset" : 1144640,
            "target" : 34962
        },
        {
            "buffer" : 0,
            "byteLength" : 51152,
            "byteOffset" : 1221368,
            "target" : 34962
        },
        {
            "buffer" : 0,
            "byteLength" : 76728,
            "byteOffset" : 1272520,
            "target" : 34962
        },
        {
            "buffer" : 0,
            "byteLength" : 76728,
            "byteOffset" : 1349248,
            "target" : 34962
        },
        {
            "buffer" : 0,
            "byteLength" : 51152,
            "byteOffset" : 1425976,
            "target" : 34962
        },
        {
            "buffer" : 0,
            "byteLength" : 8304,
            "byteOffset" : 1477128,
            "target" : 34962
        },
        {
            "buffer" : 0,
            "byteLength" : 8304,
            "byteOffset" : 1485432,
            "target" : 34962
        },
        {
            "buffer" : 0,
            "byteLength" : 5536,
            "byteOffset" : 1493736,
            "target" : 34962
        }
    ],
    "buffers" : [
        {
            "byteLength" : 1499272,
            "uri" : "data:application/octet-stream;base64,"
        }
    ]
}
