{
    "asset" : {
        "generator" : "Khronos glTF Blender I/O v3.3.32",
        "version" : "2.0"
    },
    "scene" : 0,
    "scenes" : [
        {
            "name" : "Scene",
            "nodes" : [
                0,
                1,
                2,
                3,
                4,
                5,
                6
            ]
        }
    ],
    "nodes" : [
        {
            "name" : "Empty",
            "translation" : [
                0,
                0,
                17.43822479248047
            ]
        },
        {
            "mesh" : 0,
            "name" : "Cylinder.001",
            "scale" : [
                0.4269109070301056,
                0.021808259189128876,
                0.4269109070301056
            ],
            "translation" : [
                -2.1649112701416016,
                2.555393695831299,
                2.935379981994629
            ]
        },
        {
            "mesh" : 1,
            "name" : "Cylinder",
            "scale" : [
                0.5178996324539185,
                0.10640252381563187,
                0.5178996324539185
            ],
            "translation" : [
                -2.170278549194336,
                2.464836597442627,
                2.9559144973754883
            ]
        },
        {
            "name" : "bricks 4 Flag",
            "rotation" : [
                0,
                1,
                0,
                0
            ],
            "scale" : [
                -0.6283718347549438,
                -0.13611535727977753,
                -0.6283718347549438
            ],
            "translation" : [
                3.6003196239471436,
                6.529957294464111,
                16.14059066772461
            ]
        },
        {
            "name" : "Empty.001",
            "translation" : [
                34.91128158569336,
                0,
                17.43822479248047
            ]
        },
        {
            "name" : "bricks 4 Flag.001",
            "rotation" : [
                0,
                1,
                0,
                0
            ],
            "scale" : [
                -0.6283718347549438,
                -0.13611535727977753,
                -0.6283718347549438
            ],
            "translation" : [
                38.511600494384766,
                6.529957294464111,
                16.14059066772461
            ]
        },
        {
            "mesh" : 2,
            "name" : "Cylinder.004",
            "scale" : [
                0.4056466221809387,
                0.36427468061447144,
                0.4056466221809387
            ],
            "translation" : [
                -2.170278549194336,
                2.05879545211792,
                2.9559144973754883
            ]
        }
    ],
    "materials" : [
        {
            "doubleSided" : true,
            "name" : "Shadow Pipe",
            "pbrMetallicRoughness" : {
                "baseColorFactor" : [
                    0,
                    0,
                    0,
                    1
                ],
                "metallicFactor" : 0,
                "roughnessFactor" : 0.5
            }
        },
        {
            "doubleSided" : true,
            "name" : "tube",
            "pbrMetallicRoughness" : {
                "baseColorFactor" : [
                    1,
                    0.7304601669311523,
                    0.7835378646850586,
                    1
                ],
                "metallicFactor" : 0,
                "roughnessFactor" : 0.5
            }
        }
    ],
    "meshes" : [
        {
            "name" : "Cylinder.001",
            "primitives" : [
                {
                    "attributes" : {
                        "POSITION" : 0,
                        "NORMAL" : 1,
                        "TEXCOORD_0" : 2
                    },
                    "indices" : 3,
                    "material" : 0
                }
            ]
        },
        {
            "name" : "Cylinder",
            "primitives" : [
                {
                    "attributes" : {
                        "POSITION" : 4,
                        "NORMAL" : 5,
                        "TEXCOORD_0" : 6
                    },
                    "indices" : 3,
                    "material" : 1
                }
            ]
        },
        {
            "name" : "Cylinder.004",
            "primitives" : [
                {
                    "attributes" : {
                        "POSITION" : 7,
                        "NORMAL" : 8,
                        "TEXCOORD_0" : 9
                    },
                    "indices" : 3,
                    "material" : 1
                }
            ]
        }
    ],
    "accessors" : [
        {
            "bufferView" : 0,
            "componentType" : 5126,
            "count" : 262,
            "max" : [
                1,
                1,
                1
            ],
            "min" : [
                -1,
                -1,
                -1
            ],
            "type" : "VEC3"
        },
        {
            "bufferView" : 1,
            "componentType" : 5126,
            "count" : 262,
            "type" : "VEC3"
        },
        {
            "bufferView" : 2,
            "componentType" : 5126,
            "count" : 262,
            "type" : "VEC2"
        },
        {
            "bufferView" : 3,
            "componentType" : 5123,
            "count" : 372,
            "type" : "SCALAR"
        },
        {
            "bufferView" : 4,
            "componentType" : 5126,
            "count" : 262,
            "max" : [
                1,
                1,
                1
            ],
            "min" : [
                -1,
                -1,
                -1
            ],
            "type" : "VEC3"
        },
        {
            "bufferView" : 5,
            "componentType" : 5126,
            "count" : 262,
            "type" : "VEC3"
        },
        {
            "bufferView" : 6,
            "componentType" : 5126,
            "count" : 262,
            "type" : "VEC2"
        },
        {
            "bufferView" : 7,
            "componentType" : 5126,
            "count" : 262,
            "max" : [
                1,
                1,
                1
            ],
            "min" : [
                -1,
                -1,
                -1
            ],
            "type" : "VEC3"
        },
        {
            "bufferView" : 8,
            "componentType" : 5126,
            "count" : 262,
            "type" : "VEC3"
        },
        {
            "bufferView" : 9,
            "componentType" : 5126,
            "count" : 262,
            "type" : "VEC2"
        }
    ],
    "bufferViews" : [
        {
            "buffer" : 0,
            "byteLength" : 3144,
            "byteOffset" : 0,
            "target" : 34962
        },
        {
            "buffer" : 0,
            "byteLength" : 3144,
            "byteOffset" : 3144,
            "target" : 34962
        },
        {
            "buffer" : 0,
            "byteLength" : 2096,
            "byteOffset" : 6288,
            "target" : 34962
        },
        {
            "buffer" : 0,
            "byteLength" : 744,
            "byteOffset" : 8384,
            "target" : 34963
        },
        {
            "buffer" : 0,
            "byteLength" : 3144,
            "byteOffset" : 9128,
            "target" : 34962
        },
        {
            "buffer" : 0,
            "byteLength" : 3144,
            "byteOffset" : 12272,
            "target" : 34962
        },
        {
            "buffer" : 0,
            "byteLength" : 2096,
            "byteOffset" : 15416,
            "target" : 34962
        },
        {
            "buffer" : 0,
            "byteLength" : 3144,
            "byteOffset" : 17512,
            "target" : 34962
        },
        {
            "buffer" : 0,
            "byteLength" : 3144,
            "byteOffset" : 20656,
            "target" : 34962
        },
        {
            "buffer" : 0,
            "byteLength" : 2096,
            "byteOffset" : 23800,
            "target" : 34962
        }
    ],
    "buffers" : [
        {
            "byteLength" : 25896,
            "uri" : "data:application/octet-stream;base64,"
        }
    ]
}
