{
    "asset" : {
        "generator" : "Khronos glTF Blender I/O v3.3.27",
        "version" : "2.0"
    },
    "scene" : 0,
    "scenes" : [
        {
            "name" : "Scene",
            "nodes" : [
                0
            ]
        }
    ],
    "nodes" : [
        {
            "mesh" : 0,
            "name" : "Icosphere",
            "scale" : [
                2.30086612701416,
                2.1281440258026123,
                2.4399917125701904
            ],
            "translation" : [
                -0.1066659539937973,
                7.056612968444824,
                13.087408065795898
            ]
        }
    ],
    "materials" : [
        {
            "doubleSided" : true,
            "name" : "Leaves.002",
            "pbrMetallicRoughness" : {
                "baseColorFactor" : [
                    0.5512068867683411,
                    0.5773662328720093,
                    0.9403796195983887,
                    1
                ],
                "metallicFactor" : 0,
                "roughnessFactor" : 0
            }
        },
        {
            "doubleSided" : true,
            "name" : "White Wood.002",
            "pbrMetallicRoughness" : {
                "baseColorFactor" : [
                    1,
                    0.9257964491844177,
                    0.8701474666595459,
                    1
                ],
                "metallicFactor" : 0,
                "roughnessFactor" : 0
            }
        }
    ],
    "meshes" : [
        {
            "name" : "Icosphere.017",
            "primitives" : [
                {
                    "attributes" : {
                        "POSITION" : 0,
                        "NORMAL" : 1,
                        "TEXCOORD_0" : 2
                    },
                    "indices" : 3,
                    "material" : 0
                },
                {
                    "attributes" : {
                        "POSITION" : 4,
                        "NORMAL" : 5,
                        "TEXCOORD_0" : 6
                    },
                    "indices" : 7,
                    "material" : 1
                }
            ]
        }
    ],
    "accessors" : [
        {
            "bufferView" : 0,
            "componentType" : 5126,
            "count" : 9396,
            "max" : [
                1.1614798307418823,
                1.9130606651306152,
                1.1372623443603516
            ],
            "min" : [
                -1.039434790611267,
                -1.4378266334533691,
                -1.0481985807418823
            ],
            "type" : "VEC3"
        },
        {
            "bufferView" : 1,
            "componentType" : 5126,
            "count" : 9396,
            "type" : "VEC3"
        },
        {
            "bufferView" : 2,
            "componentType" : 5126,
            "count" : 9396,
            "type" : "VEC2"
        },
        {
            "bufferView" : 3,
            "componentType" : 5123,
            "count" : 9396,
            "type" : "SCALAR"
        },
        {
            "bufferView" : 4,
            "componentType" : 5126,
            "count" : 78,
            "max" : [
                0.2566649615764618,
                0.6379457712173462,
                0.3182273507118225
            ],
            "min" : [
                -0.18740370869636536,
                -4.786870956420898,
                -0.09894022345542908
            ],
            "type" : "VEC3"
        },
        {
            "bufferView" : 5,
            "componentType" : 5126,
            "count" : 78,
            "type" : "VEC3"
        },
        {
            "bufferView" : 6,
            "componentType" : 5126,
            "count" : 78,
            "type" : "VEC2"
        },
        {
            "bufferView" : 7,
            "componentType" : 5123,
            "count" : 108,
            "type" : "SCALAR"
        }
    ],
    "bufferViews" : [
        {
            "buffer" : 0,
            "byteLength" : 112752,
            "byteOffset" : 0,
            "target" : 34962
        },
        {
            "buffer" : 0,
            "byteLength" : 112752,
            "byteOffset" : 112752,
            "target" : 34962
        },
        {
            "buffer" : 0,
            "byteLength" : 75168,
            "byteOffset" : 225504,
            "target" : 34962
        },
        {
            "buffer" : 0,
            "byteLength" : 18792,
            "byteOffset" : 300672,
            "target" : 34963
        },
        {
            "buffer" : 0,
            "byteLength" : 936,
            "byteOffset" : 319464,
            "target" : 34962
        },
        {
            "buffer" : 0,
            "byteLength" : 936,
            "byteOffset" : 320400,
            "target" : 34962
        },
        {
            "buffer" : 0,
            "byteLength" : 624,
            "byteOffset" : 321336,
            "target" : 34962
        },
        {
            "buffer" : 0,
            "byteLength" : 216,
            "byteOffset" : 321960,
            "target" : 34963
        }
    ],
    "buffers" : [
        {
            "byteLength" : 322176,
            "uri" : "data:application/octet-stream;base64,"
        }
    ]
}
