{
    "asset" : {
        "generator" : "Khronos glTF Blender I/O v3.3.27",
        "version" : "2.0"
    },
    "scene" : 0,
    "scenes" : [
        {
            "name" : "Scene",
            "nodes" : [
                0,
                1
            ]
        }
    ],
    "nodes" : [
        {
            "mesh" : 0,
            "name" : "Cube",
            "rotation" : [
                0.9999743103981018,
                0,
                0,
                0.007171883713454008
            ],
            "scale" : [
                1.1082890033721924,
                1.0928138494491577,
                1.1082862615585327
            ],
            "translation" : [
                -0.0481715202331543,
                11.063844680786133,
                13.1514253616333
            ]
        },
        {
            "mesh" : 1,
            "name" : "Icosphere",
            "scale" : [
                2.30086612701416,
                2.1281440258026123,
                2.4399917125701904
            ],
            "translation" : [
                -0.1066659539937973,
                7.056612968444824,
                13.087408065795898
            ]
        }
    ],
    "materials" : [
        {
            "doubleSided" : true,
            "name" : "White Wood.001",
            "pbrMetallicRoughness" : {
                "baseColorFactor" : [
                    1,
                    0.9257964491844177,
                    0.8701474666595459,
                    1
                ],
                "metallicFactor" : 0,
                "roughnessFactor" : 0
            }
        },
        {
            "doubleSided" : true,
            "name" : "Leaves.001",
            "pbrMetallicRoughness" : {
                "baseColorFactor" : [
                    0.5889718532562256,
                    0.9403796195983887,
                    0.9133872389793396,
                    1
                ],
                "metallicFactor" : 0,
                "roughnessFactor" : 0
            }
        }
    ],
    "meshes" : [
        {
            "name" : "Cube.003",
            "primitives" : [
                {
                    "attributes" : {
                        "POSITION" : 0,
                        "NORMAL" : 1,
                        "TEXCOORD_0" : 2
                    },
                    "indices" : 3,
                    "material" : 0
                }
            ]
        },
        {
            "name" : "Icosphere.016",
            "primitives" : [
                {
                    "attributes" : {
                        "POSITION" : 4,
                        "NORMAL" : 5,
                        "TEXCOORD_0" : 6
                    },
                    "indices" : 7,
                    "material" : 1
                }
            ]
        }
    ],
    "accessors" : [
        {
            "bufferView" : 0,
            "componentType" : 5126,
            "count" : 74,
            "max" : [
                0.48007088899612427,
                12.983495712280273,
                0.45926278829574585
            ],
            "min" : [
                -0.4418390095233917,
                2.4251914024353027,
                -0.45926380157470703
            ],
            "type" : "VEC3"
        },
        {
            "bufferView" : 1,
            "componentType" : 5126,
            "count" : 74,
            "type" : "VEC3"
        },
        {
            "bufferView" : 2,
            "componentType" : 5126,
            "count" : 74,
            "type" : "VEC2"
        },
        {
            "bufferView" : 3,
            "componentType" : 5123,
            "count" : 108,
            "type" : "SCALAR"
        },
        {
            "bufferView" : 4,
            "componentType" : 5126,
            "count" : 9396,
            "max" : [
                1.1614798307418823,
                1.9130606651306152,
                1.1372623443603516
            ],
            "min" : [
                -1.039434790611267,
                -1.4378266334533691,
                -1.0481985807418823
            ],
            "type" : "VEC3"
        },
        {
            "bufferView" : 5,
            "componentType" : 5126,
            "count" : 9396,
            "type" : "VEC3"
        },
        {
            "bufferView" : 6,
            "componentType" : 5126,
            "count" : 9396,
            "type" : "VEC2"
        },
        {
            "bufferView" : 7,
            "componentType" : 5123,
            "count" : 9396,
            "type" : "SCALAR"
        }
    ],
    "bufferViews" : [
        {
            "buffer" : 0,
            "byteLength" : 888,
            "byteOffset" : 0,
            "target" : 34962
        },
        {
            "buffer" : 0,
            "byteLength" : 888,
            "byteOffset" : 888,
            "target" : 34962
        },
        {
            "buffer" : 0,
            "byteLength" : 592,
            "byteOffset" : 1776,
            "target" : 34962
        },
        {
            "buffer" : 0,
            "byteLength" : 216,
            "byteOffset" : 2368,
            "target" : 34963
        },
        {
            "buffer" : 0,
            "byteLength" : 112752,
            "byteOffset" : 2584,
            "target" : 34962
        },
        {
            "buffer" : 0,
            "byteLength" : 112752,
            "byteOffset" : 115336,
            "target" : 34962
        },
        {
            "buffer" : 0,
            "byteLength" : 75168,
            "byteOffset" : 228088,
            "target" : 34962
        },
        {
            "buffer" : 0,
            "byteLength" : 18792,
            "byteOffset" : 303256,
            "target" : 34963
        }
    ],
    "buffers" : [
        {
            "byteLength" : 322048,
            "uri" : "data:application/octet-stream;base64,"
        }
    ]
}
