{
    "asset" : {
        "generator" : "Khronos glTF Blender I/O v3.3.32",
        "version" : "2.0"
    },
    "scene" : 0,
    "scenes" : [
        {
            "name" : "Scene",
            "nodes" : [
                0,
                1,
                2,
                3,
                4,
                5,
                6,
                7,
                8,
                9
            ]
        }
    ],
    "nodes" : [
        {
            "mesh" : 0,
            "name" : "Sphere.003",
            "scale" : [
                0.4327912926673889,
                0.4327912926673889,
                0.4327912926673889
            ],
            "translation" : [
                -2.4662914276123047,
                2.702941417694092,
                -16.81251335144043
            ]
        },
        {
            "mesh" : 1,
            "name" : "Sphere 5",
            "scale" : [
                0.4327912926673889,
                0.4327912926673889,
                0.4327912926673889
            ],
            "translation" : [
                3.8467884063720703,
                4.655154228210449,
                -12.768027305603027
            ]
        },
        {
            "mesh" : 2,
            "name" : "Sphere 4",
            "scale" : [
                0.4327912926673889,
                0.4327912926673889,
                0.4327912926673889
            ],
            "translation" : [
                2.9808273315429688,
                3.9520912170410156,
                -11.90300464630127
            ]
        },
        {
            "mesh" : 3,
            "name" : "Sphere 2.001",
            "scale" : [
                0.4327912926673889,
                0.4327912926673889,
                0.4327912926673889
            ],
            "translation" : [
                2.8302783966064453,
                2.688594341278076,
                -13.150105476379395
            ]
        },
        {
            "mesh" : 4,
            "name" : "Sphere",
            "scale" : [
                0.4327912926673889,
                0.4327912926673889,
                0.4327912926673889
            ],
            "translation" : [
                -1.4294146299362183,
                4.1269426345825195,
                -17.058061599731445
            ]
        },
        {
            "name" : "Empty"
        },
        {
            "mesh" : 5,
            "name" : "Cylinder.001",
            "scale" : [
                0.4269109070301056,
                0.021808259189128876,
                0.4269109070301056
            ],
            "translation" : [
                -2.1649112701416016,
                2.555393695831299,
                -14.502843856811523
            ]
        },
        {
            "mesh" : 6,
            "name" : "Cylinder",
            "scale" : [
                0.5178996324539185,
                0.10640252381563187,
                0.5178996324539185
            ],
            "translation" : [
                -2.170278549194336,
                2.464836597442627,
                -14.482309341430664
            ]
        },
        {
            "mesh" : 7,
            "name" : "Cube",
            "scale" : [
                1.057321310043335,
                1.057321310043335,
                1.057321310043335
            ],
            "translation" : [
                1.480077862739563,
                2.1480202674865723,
                -12.848343849182129
            ]
        },
        {
            "name" : "bricks 4 Flag",
            "rotation" : [
                0,
                1,
                0,
                0
            ],
            "scale" : [
                -0.6283718347549438,
                -0.13611535727977753,
                -0.6283718347549438
            ],
            "translation" : [
                3.6003196239471436,
                6.529957294464111,
                -1.2976343631744385
            ]
        }
    ],
    "materials" : [
        {
            "doubleSided" : true,
            "name" : "green object.003",
            "pbrMetallicRoughness" : {
                "baseColorFactor" : [
                    0.9130979180335999,
                    0.7529415488243103,
                    0.9822505116462708,
                    1
                ],
                "metallicFactor" : 0.30000001192092896,
                "roughnessFactor" : 0.30000001192092896
            }
        },
        {
            "doubleSided" : true,
            "name" : "green object.005",
            "pbrMetallicRoughness" : {
                "baseColorFactor" : [
                    0.4178841710090637,
                    0.6866847276687622,
                    0.7912980318069458,
                    1
                ],
                "metallicFactor" : 0.30000001192092896,
                "roughnessFactor" : 0.30000001192092896
            }
        },
        {
            "doubleSided" : true,
            "name" : "Cone 3",
            "pbrMetallicRoughness" : {
                "baseColorFactor" : [
                    1,
                    0.5271145105361938,
                    0.5972020626068115,
                    1
                ],
                "metallicFactor" : 0.30000001192092896,
                "roughnessFactor" : 0.5
            }
        },
        {
            "doubleSided" : true,
            "name" : "green object.001",
            "pbrMetallicRoughness" : {
                "baseColorFactor" : [
                    0.9130987524986267,
                    0.36625227332115173,
                    0.04817195236682892,
                    1
                ],
                "metallicFactor" : 0.30000001192092896,
                "roughnessFactor" : 0.30000001192092896
            }
        },
        {
            "doubleSided" : true,
            "name" : "green object",
            "pbrMetallicRoughness" : {
                "baseColorFactor" : [
                    1,
                    1,
                    0.5209956765174866,
                    1
                ],
                "metallicFactor" : 0.30000001192092896,
                "roughnessFactor" : 0.30000001192092896
            }
        },
        {
            "doubleSided" : true,
            "name" : "Shadow Pipe",
            "pbrMetallicRoughness" : {
                "baseColorFactor" : [
                    0,
                    0,
                    0,
                    1
                ],
                "metallicFactor" : 0,
                "roughnessFactor" : 0.5
            }
        },
        {
            "doubleSided" : true,
            "name" : "tube",
            "pbrMetallicRoughness" : {
                "baseColorFactor" : [
                    0.5583398342132568,
                    0.752941906452179,
                    0.3762623369693756,
                    1
                ],
                "metallicFactor" : 0,
                "roughnessFactor" : 0.5
            }
        },
        {
            "doubleSided" : true,
            "name" : "green",
            "pbrMetallicRoughness" : {
                "baseColorFactor" : [
                    0.6172056794166565,
                    0.9559727311134338,
                    0.6307573914527893,
                    1
                ],
                "metallicFactor" : 0.5,
                "roughnessFactor" : 0.4000000059604645
            }
        },
        {
            "doubleSided" : true,
            "name" : "brown",
            "pbrMetallicRoughness" : {
                "baseColorFactor" : [
                    0.6444793939590454,
                    0.45641061663627625,
                    0.26225075125694275,
                    1
                ],
                "metallicFactor" : 0,
                "roughnessFactor" : 0.5
            }
        }
    ],
    "meshes" : [
        {
            "name" : "Sphere.004",
            "primitives" : [
                {
                    "attributes" : {
                        "POSITION" : 0,
                        "NORMAL" : 1,
                        "TEXCOORD_0" : 2
                    },
                    "indices" : 3,
                    "material" : 0
                }
            ]
        },
        {
            "name" : "Sphere.006",
            "primitives" : [
                {
                    "attributes" : {
                        "POSITION" : 4,
                        "NORMAL" : 5,
                        "TEXCOORD_0" : 6
                    },
                    "indices" : 3,
                    "material" : 1
                }
            ]
        },
        {
            "name" : "Sphere.005",
            "primitives" : [
                {
                    "attributes" : {
                        "POSITION" : 7,
                        "NORMAL" : 8,
                        "TEXCOORD_0" : 9
                    },
                    "indices" : 3,
                    "material" : 2
                }
            ]
        },
        {
            "name" : "Sphere.002",
            "primitives" : [
                {
                    "attributes" : {
                        "POSITION" : 10,
                        "NORMAL" : 11,
                        "TEXCOORD_0" : 12
                    },
                    "indices" : 3,
                    "material" : 3
                }
            ]
        },
        {
            "name" : "Sphere.001",
            "primitives" : [
                {
                    "attributes" : {
                        "POSITION" : 13,
                        "NORMAL" : 14,
                        "TEXCOORD_0" : 15
                    },
                    "indices" : 3,
                    "material" : 4
                }
            ]
        },
        {
            "name" : "Cylinder.001",
            "primitives" : [
                {
                    "attributes" : {
                        "POSITION" : 16,
                        "NORMAL" : 17,
                        "TEXCOORD_0" : 18
                    },
                    "indices" : 19,
                    "material" : 5
                }
            ]
        },
        {
            "name" : "Cylinder",
            "primitives" : [
                {
                    "attributes" : {
                        "POSITION" : 20,
                        "NORMAL" : 21,
                        "TEXCOORD_0" : 22
                    },
                    "indices" : 19,
                    "material" : 6
                }
            ]
        },
        {
            "name" : "Cube",
            "primitives" : [
                {
                    "attributes" : {
                        "POSITION" : 23,
                        "NORMAL" : 24,
                        "TEXCOORD_0" : 25
                    },
                    "indices" : 26,
                    "material" : 7
                },
                {
                    "attributes" : {
                        "POSITION" : 27,
                        "NORMAL" : 28,
                        "TEXCOORD_0" : 29
                    },
                    "indices" : 30,
                    "material" : 8
                }
            ]
        }
    ],
    "accessors" : [
        {
            "bufferView" : 0,
            "componentType" : 5126,
            "count" : 368,
            "max" : [
                8.041479110717773,
                3.266345500946045,
                4.7691850662231445
            ],
            "min" : [
                4.306092739105225,
                -9.072546005249023,
                1.0337986946105957
            ],
            "type" : "VEC3"
        },
        {
            "bufferView" : 1,
            "componentType" : 5126,
            "count" : 368,
            "type" : "VEC3"
        },
        {
            "bufferView" : 2,
            "componentType" : 5126,
            "count" : 368,
            "type" : "VEC2"
        },
        {
            "bufferView" : 3,
            "componentType" : 5123,
            "count" : 528,
            "type" : "SCALAR"
        },
        {
            "bufferView" : 4,
            "componentType" : 5126,
            "count" : 368,
            "max" : [
                8.041479110717773,
                3.266345500946045,
                4.7691850662231445
            ],
            "min" : [
                4.306092739105225,
                -9.072546005249023,
                1.0337986946105957
            ],
            "type" : "VEC3"
        },
        {
            "bufferView" : 5,
            "componentType" : 5126,
            "count" : 368,
            "type" : "VEC3"
        },
        {
            "bufferView" : 6,
            "componentType" : 5126,
            "count" : 368,
            "type" : "VEC2"
        },
        {
            "bufferView" : 7,
            "componentType" : 5126,
            "count" : 368,
            "max" : [
                8.041479110717773,
                3.266345500946045,
                4.7691850662231445
            ],
            "min" : [
                4.306092739105225,
                -9.072546005249023,
                1.0337986946105957
            ],
            "type" : "VEC3"
        },
        {
            "bufferView" : 8,
            "componentType" : 5126,
            "count" : 368,
            "type" : "VEC3"
        },
        {
            "bufferView" : 9,
            "componentType" : 5126,
            "count" : 368,
            "type" : "VEC2"
        },
        {
            "bufferView" : 10,
            "componentType" : 5126,
            "count" : 368,
            "max" : [
                8.041479110717773,
                3.266345500946045,
                4.7691850662231445
            ],
            "min" : [
                4.306092739105225,
                -9.072546005249023,
                1.0337986946105957
            ],
            "type" : "VEC3"
        },
        {
            "bufferView" : 11,
            "componentType" : 5126,
            "count" : 368,
            "type" : "VEC3"
        },
        {
            "bufferView" : 12,
            "componentType" : 5126,
            "count" : 368,
            "type" : "VEC2"
        },
        {
            "bufferView" : 13,
            "componentType" : 5126,
            "count" : 368,
            "max" : [
                8.041479110717773,
                3.266345500946045,
                4.7691850662231445
            ],
            "min" : [
                4.306092739105225,
                -9.072546005249023,
                1.0337986946105957
            ],
            "type" : "VEC3"
        },
        {
            "bufferView" : 14,
            "componentType" : 5126,
            "count" : 368,
            "type" : "VEC3"
        },
        {
            "bufferView" : 15,
            "componentType" : 5126,
            "count" : 368,
            "type" : "VEC2"
        },
        {
            "bufferView" : 16,
            "componentType" : 5126,
            "count" : 192,
            "max" : [
                1,
                1,
                1
            ],
            "min" : [
                -1,
                -1,
                -1
            ],
            "type" : "VEC3"
        },
        {
            "bufferView" : 17,
            "componentType" : 5126,
            "count" : 192,
            "type" : "VEC3"
        },
        {
            "bufferView" : 18,
            "componentType" : 5126,
            "count" : 192,
            "type" : "VEC2"
        },
        {
            "bufferView" : 19,
            "componentType" : 5123,
            "count" : 372,
            "type" : "SCALAR"
        },
        {
            "bufferView" : 20,
            "componentType" : 5126,
            "count" : 192,
            "max" : [
                1,
                1,
                1
            ],
            "min" : [
                -1,
                -1,
                -1
            ],
            "type" : "VEC3"
        },
        {
            "bufferView" : 21,
            "componentType" : 5126,
            "count" : 192,
            "type" : "VEC3"
        },
        {
            "bufferView" : 22,
            "componentType" : 5126,
            "count" : 192,
            "type" : "VEC2"
        },
        {
            "bufferView" : 23,
            "componentType" : 5126,
            "count" : 392,
            "max" : [
                6.49741792678833,
                0.27748480439186096,
                4.654587745666504
            ],
            "min" : [
                -6.486382484436035,
                -0.9803032875061035,
                -4.310738563537598
            ],
            "type" : "VEC3"
        },
        {
            "bufferView" : 24,
            "componentType" : 5126,
            "count" : 392,
            "type" : "VEC3"
        },
        {
            "bufferView" : 25,
            "componentType" : 5126,
            "count" : 392,
            "type" : "VEC2"
        },
        {
            "bufferView" : 26,
            "componentType" : 5123,
            "count" : 678,
            "type" : "SCALAR"
        },
        {
            "bufferView" : 27,
            "componentType" : 5126,
            "count" : 168,
            "max" : [
                6.041265487670898,
                -0.9761019945144653,
                4.337991237640381
            ],
            "min" : [
                -6.040803909301758,
                -4.664031982421875,
                -3.9978396892547607
            ],
            "type" : "VEC3"
        },
        {
            "bufferView" : 28,
            "componentType" : 5126,
            "count" : 168,
            "type" : "VEC3"
        },
        {
            "bufferView" : 29,
            "componentType" : 5126,
            "count" : 168,
            "type" : "VEC2"
        },
        {
            "bufferView" : 30,
            "componentType" : 5123,
            "count" : 258,
            "type" : "SCALAR"
        }
    ],
    "bufferViews" : [
        {
            "buffer" : 0,
            "byteLength" : 4416,
            "byteOffset" : 0,
            "target" : 34962
        },
        {
            "buffer" : 0,
            "byteLength" : 4416,
            "byteOffset" : 4416,
            "target" : 34962
        },
        {
            "buffer" : 0,
            "byteLength" : 2944,
            "byteOffset" : 8832,
            "target" : 34962
        },
        {
            "buffer" : 0,
            "byteLength" : 1056,
            "byteOffset" : 11776,
            "target" : 34963
        },
        {
            "buffer" : 0,
            "byteLength" : 4416,
            "byteOffset" : 12832,
            "target" : 34962
        },
        {
            "buffer" : 0,
            "byteLength" : 4416,
            "byteOffset" : 17248,
            "target" : 34962
        },
        {
            "buffer" : 0,
            "byteLength" : 2944,
            "byteOffset" : 21664,
            "target" : 34962
        },
        {
            "buffer" : 0,
            "byteLength" : 4416,
            "byteOffset" : 24608,
            "target" : 34962
        },
        {
            "buffer" : 0,
            "byteLength" : 4416,
            "byteOffset" : 29024,
            "target" : 34962
        },
        {
            "buffer" : 0,
            "byteLength" : 2944,
            "byteOffset" : 33440,
            "target" : 34962
        },
        {
            "buffer" : 0,
            "byteLength" : 4416,
            "byteOffset" : 36384,
            "target" : 34962
        },
        {
            "buffer" : 0,
            "byteLength" : 4416,
            "byteOffset" : 40800,
            "target" : 34962
        },
        {
            "buffer" : 0,
            "byteLength" : 2944,
            "byteOffset" : 45216,
            "target" : 34962
        },
        {
            "buffer" : 0,
            "byteLength" : 4416,
            "byteOffset" : 48160,
            "target" : 34962
        },
        {
            "buffer" : 0,
            "byteLength" : 4416,
            "byteOffset" : 52576,
            "target" : 34962
        },
        {
            "buffer" : 0,
            "byteLength" : 2944,
            "byteOffset" : 56992,
            "target" : 34962
        },
        {
            "buffer" : 0,
            "byteLength" : 2304,
            "byteOffset" : 59936,
            "target" : 34962
        },
        {
            "buffer" : 0,
            "byteLength" : 2304,
            "byteOffset" : 62240,
            "target" : 34962
        },
        {
            "buffer" : 0,
            "byteLength" : 1536,
            "byteOffset" : 64544,
            "target" : 34962
        },
        {
            "buffer" : 0,
            "byteLength" : 744,
            "byteOffset" : 66080,
            "target" : 34963
        },
        {
            "buffer" : 0,
            "byteLength" : 2304,
            "byteOffset" : 66824,
            "target" : 34962
        },
        {
            "buffer" : 0,
            "byteLength" : 2304,
            "byteOffset" : 69128,
            "target" : 34962
        },
        {
            "buffer" : 0,
            "byteLength" : 1536,
            "byteOffset" : 71432,
            "target" : 34962
        },
        {
            "buffer" : 0,
            "byteLength" : 4704,
            "byteOffset" : 72968,
            "target" : 34962
        },
        {
            "buffer" : 0,
            "byteLength" : 4704,
            "byteOffset" : 77672,
            "target" : 34962
        },
        {
            "buffer" : 0,
            "byteLength" : 3136,
            "byteOffset" : 82376,
            "target" : 34962
        },
        {
            "buffer" : 0,
            "byteLength" : 1356,
            "byteOffset" : 85512,
            "target" : 34963
        },
        {
            "buffer" : 0,
            "byteLength" : 2016,
            "byteOffset" : 86868,
            "target" : 34962
        },
        {
            "buffer" : 0,
            "byteLength" : 2016,
            "byteOffset" : 88884,
            "target" : 34962
        },
        {
            "buffer" : 0,
            "byteLength" : 1344,
            "byteOffset" : 90900,
            "target" : 34962
        },
        {
            "buffer" : 0,
            "byteLength" : 516,
            "byteOffset" : 92244,
            "target" : 34963
        }
    ],
    "buffers" : [
        {
            "byteLength" : 92760,
            "uri" : "data:application/octet-stream;base64,"
        }
    ]
}
