{
    "asset" : {
        "generator" : "Khronos glTF Blender I/O v3.3.27",
        "version" : "2.0"
    },
    "scene" : 0,
    "scenes" : [
        {
            "name" : "Scene",
            "nodes" : [
                23
            ]
        }
    ],
    "nodes" : [
        {
            "name" : "Bone.020",
            "rotation" : [
                6.424369303204003e-08,
                -5.340817921251073e-08,
                -0.010176538489758968,
                0.9999483227729797
            ],
            "translation" : [
                1.9073486328125e-06,
                0.23162364959716797,
                0
            ]
        },
        {
            "children" : [
                0
            ],
            "name" : "Bone.003",
            "translation" : [
                1.9073486328125e-06,
                0.5689005851745605,
                0
            ]
        },
        {
            "name" : "Bone.010",
            "rotation" : [
                8.257667438726912e-09,
                2.642282765918935e-07,
                0.037157319486141205,
                0.9993094205856323
            ],
            "scale" : [
                1,
                0.9999999403953552,
                1
            ],
            "translation" : [
                9.055092959897593e-07,
                0.596930742263794,
                -5.211245479586069e-07
            ]
        },
        {
            "children" : [
                2
            ],
            "name" : "Bone.008",
            "rotation" : [
                1.689905460011687e-08,
                5.376217515618009e-08,
                0.0312693789601326,
                0.9995110034942627
            ],
            "scale" : [
                0.9999998807907104,
                0.9999998807907104,
                1
            ],
            "translation" : [
                -2.4952396415756084e-07,
                0.6770174503326416,
                8.638730832899455e-07
            ]
        },
        {
            "children" : [
                3
            ],
            "name" : "Bone.006",
            "rotation" : [
                4.770360106931548e-08,
                -2.684036246591859e-07,
                0.14776213467121124,
                0.9890229105949402
            ],
            "scale" : [
                1,
                0.9999998807907104,
                1
            ],
            "translation" : [
                -2.933717269115732e-09,
                0.6377853155136108,
                1.5377132456251275e-07
            ]
        },
        {
            "children" : [
                4
            ],
            "name" : "Bone.004",
            "rotation" : [
                2.0119616195302115e-08,
                -1.603680921391515e-08,
                0.7819841504096985,
                0.6232984066009521
            ],
            "translation" : [
                1.9073486328125e-06,
                0.5689005851745605,
                0
            ]
        },
        {
            "name" : "Bone.011",
            "rotation" : [
                -9.254599753205639e-09,
                -2.8263045237508777e-07,
                -0.037157315760850906,
                0.9993094205856323
            ],
            "scale" : [
                0.9999999403953552,
                0.9999998211860657,
                1
            ],
            "translation" : [
                4.043361059302697e-07,
                0.5969288349151611,
                3.1128723776419065e-07
            ]
        },
        {
            "children" : [
                6
            ],
            "name" : "Bone.009",
            "rotation" : [
                4.093063221688453e-09,
                -9.708892889648268e-08,
                -0.031269367784261703,
                0.9995110034942627
            ],
            "scale" : [
                1,
                1,
                1.0000001192092896
            ],
            "translation" : [
                -1.6232468169619096e-06,
                0.6770154237747192,
                7.700315336478525e-07
            ]
        },
        {
            "children" : [
                7
            ],
            "name" : "Bone.007",
            "rotation" : [
                2.0649126852845257e-08,
                8.731866074640493e-08,
                -0.14776216447353363,
                0.9890229105949402
            ],
            "scale" : [
                0.9999999403953552,
                0.9999998807907104,
                1
            ],
            "translation" : [
                4.797708470505313e-07,
                0.6377872228622437,
                4.4828107093053404e-07
            ]
        },
        {
            "children" : [
                8
            ],
            "name" : "Bone.005",
            "rotation" : [
                2.0119616195302115e-08,
                1.603680921391515e-08,
                -0.7819841504096985,
                0.6232984066009521
            ],
            "translation" : [
                1.9073486328125e-06,
                0.5689005851745605,
                0
            ]
        },
        {
            "children" : [
                1,
                5,
                9
            ],
            "name" : "Bone.002",
            "translation" : [
                1.9073486328125e-06,
                0.5567095279693604,
                0
            ]
        },
        {
            "children" : [
                10
            ],
            "name" : "Bone.001",
            "translation" : [
                1.9073486328125e-06,
                0.5936427116394043,
                0
            ]
        },
        {
            "children" : [
                11
            ],
            "name" : "Bone",
            "translation" : [
                1.9073486328125e-06,
                1.1920928955078125e-07,
                1.9073486328125e-06
            ]
        },
        {
            "name" : "Bone.018",
            "rotation" : [
                -0.10345971584320068,
                -3.337791554258729e-08,
                -4.339091308480647e-09,
                0.9946337342262268
            ],
            "scale" : [
                1,
                1.0000001192092896,
                0.9999999403953552
            ],
            "translation" : [
                2.0954325918864924e-07,
                0.45837119221687317,
                1.773439180396963e-06
            ]
        },
        {
            "children" : [
                13
            ],
            "name" : "Bone.016",
            "rotation" : [
                -7.450580596923828e-09,
                3.0964233828617137e-15,
                -5.614960231525076e-16,
                1
            ],
            "translation" : [
                2.0954280444129836e-07,
                0.5558971166610718,
                1.789147518138634e-06
            ]
        },
        {
            "children" : [
                14
            ],
            "name" : "Bone.014",
            "rotation" : [
                -0.6127638220787048,
                6.041279476676209e-08,
                -1.7759455017696268e-09,
                0.790266215801239
            ],
            "scale" : [
                1,
                0.9999999403953552,
                0.9999999403953552
            ],
            "translation" : [
                -5.067428787697281e-07,
                0.7048918008804321,
                -3.369059982105682e-07
            ]
        },
        {
            "children" : [
                15
            ],
            "name" : "Bone.012",
            "rotation" : [
                -0.5588025450706482,
                0.43328940868377686,
                0.5588026642799377,
                0.43328943848609924
            ],
            "scale" : [
                1,
                1,
                0.9999999403953552
            ],
            "translation" : [
                1.9073486328125e-06,
                1.1920928955078125e-07,
                1.9073486328125e-06
            ]
        },
        {
            "name" : "Bone.019",
            "rotation" : [
                -0.10345987230539322,
                1.2415775074714475e-07,
                -5.103645950299551e-09,
                0.9946337342262268
            ],
            "scale" : [
                1,
                1,
                0.9999999403953552
            ],
            "translation" : [
                3.14465523842955e-07,
                0.45837122201919556,
                -2.8102449505240656e-06
            ]
        },
        {
            "children" : [
                17
            ],
            "name" : "Bone.017",
            "rotation" : [
                -1.2968913514476712e-16,
                0,
                3.652245396998361e-16,
                1
            ],
            "translation" : [
                3.14465523842955e-07,
                0.5558972358703613,
                -2.8102449505240656e-06
            ]
        },
        {
            "children" : [
                18
            ],
            "name" : "Bone.015",
            "rotation" : [
                -0.6160517930984497,
                -6.259605278557956e-09,
                4.161508826427962e-08,
                0.7877057790756226
            ],
            "translation" : [
                5.15806561907084e-07,
                0.7285253405570984,
                -3.258503511460731e-08
            ]
        },
        {
            "children" : [
                19
            ],
            "name" : "Bone.013",
            "rotation" : [
                -0.5569920539855957,
                -0.43561437726020813,
                -0.5569919943809509,
                0.43561434745788574
            ],
            "translation" : [
                1.9073486328125e-06,
                1.1920928955078125e-07,
                1.9073486328125e-06
            ]
        },
        {
            "mesh" : 0,
            "name" : "gray-eyes",
            "skin" : 0
        },
        {
            "mesh" : 1,
            "name" : "teddy-gray",
            "skin" : 0
        },
        {
            "children" : [
                21,
                22,
                12,
                16,
                20
            ],
            "name" : "Armature.009",
            "scale" : [
                0.4467461109161377,
                0.4467461109161377,
                0.4467461109161377
            ],
            "translation" : [
                12.83133316040039,
                0.7977113723754883,
                4.1143269538879395
            ]
        }
    ],
    "materials" : [
        {
            "doubleSided" : true,
            "name" : "Material.003",
            "pbrMetallicRoughness" : {
                "baseColorFactor" : [
                    0.2269657850265503,
                    0.1412631720304489,
                    0.08650047332048416,
                    1
                ],
                "metallicFactor" : 0,
                "roughnessFactor" : 0.5
            }
        },
        {
            "doubleSided" : true,
            "name" : "teddy-impostor-material.001",
            "pbrMetallicRoughness" : {
                "baseColorFactor" : [
                    0.637596607208252,
                    0.5271146893501282,
                    0.3915725648403168,
                    1
                ],
                "metallicFactor" : 0,
                "roughnessFactor" : 0.5
            }
        }
    ],
    "meshes" : [
        {
            "name" : "Cube.126",
            "primitives" : [
                {
                    "attributes" : {
                        "POSITION" : 0,
                        "NORMAL" : 1,
                        "TEXCOORD_0" : 2,
                        "JOINTS_0" : 3,
                        "WEIGHTS_0" : 4
                    },
                    "indices" : 5,
                    "material" : 0
                }
            ]
        },
        {
            "name" : "Cube.128",
            "primitives" : [
                {
                    "attributes" : {
                        "POSITION" : 7,
                        "NORMAL" : 8,
                        "TEXCOORD_0" : 9,
                        "COLOR_0" : 10,
                        "JOINTS_0" : 11,
                        "WEIGHTS_0" : 12
                    },
                    "indices" : 13,
                    "material" : 1
                }
            ]
        }
    ],
    "skins" : [
        {
            "inverseBindMatrices" : 6,
            "joints" : [
                12,
                11,
                10,
                1,
                0,
                5,
                4,
                3,
                2,
                9,
                8,
                7,
                6,
                16,
                15,
                14,
                13,
                20,
                19,
                18,
                17
            ],
            "name" : "Armature.009"
        }
    ],
    "accessors" : [
        {
            "bufferView" : 0,
            "componentType" : 5126,
            "count" : 4728,
            "max" : [
                13.506636619567871,
                2.3110954761505127,
                4.6082444190979
            ],
            "min" : [
                12.148045539855957,
                1.9606024026870728,
                4.238963603973389
            ],
            "type" : "VEC3"
        },
        {
            "bufferView" : 1,
            "componentType" : 5126,
            "count" : 4728,
            "type" : "VEC3"
        },
        {
            "bufferView" : 2,
            "componentType" : 5126,
            "count" : 4728,
            "type" : "VEC2"
        },
        {
            "bufferView" : 3,
            "componentType" : 5121,
            "count" : 4728,
            "type" : "VEC4"
        },
        {
            "bufferView" : 4,
            "componentType" : 5126,
            "count" : 4728,
            "type" : "VEC4"
        },
        {
            "bufferView" : 5,
            "componentType" : 5123,
            "count" : 18432,
            "type" : "SCALAR"
        },
        {
            "bufferView" : 6,
            "componentType" : 5126,
            "count" : 21,
            "type" : "MAT4"
        },
        {
            "bufferView" : 7,
            "componentType" : 5126,
            "count" : 22531,
            "max" : [
                13.878605842590332,
                3.1326215267181396,
                4.88319206237793
            ],
            "min" : [
                11.761598587036133,
                0.13176867365837097,
                3.343179941177368
            ],
            "type" : "VEC3"
        },
        {
            "bufferView" : 8,
            "componentType" : 5126,
            "count" : 22531,
            "type" : "VEC3"
        },
        {
            "bufferView" : 9,
            "componentType" : 5126,
            "count" : 22531,
            "type" : "VEC2"
        },
        {
            "bufferView" : 10,
            "componentType" : 5123,
            "count" : 22531,
            "normalized" : true,
            "type" : "VEC4"
        },
        {
            "bufferView" : 11,
            "componentType" : 5121,
            "count" : 22531,
            "type" : "VEC4"
        },
        {
            "bufferView" : 12,
            "componentType" : 5126,
            "count" : 22531,
            "type" : "VEC4"
        },
        {
            "bufferView" : 13,
            "componentType" : 5123,
            "count" : 110352,
            "type" : "SCALAR"
        }
    ],
    "bufferViews" : [
        {
            "buffer" : 0,
            "byteLength" : 56736,
            "byteOffset" : 0,
            "target" : 34962
        },
        {
            "buffer" : 0,
            "byteLength" : 56736,
            "byteOffset" : 56736,
            "target" : 34962
        },
        {
            "buffer" : 0,
            "byteLength" : 37824,
            "byteOffset" : 113472,
            "target" : 34962
        },
        {
            "buffer" : 0,
            "byteLength" : 18912,
            "byteOffset" : 151296,
            "target" : 34962
        },
        {
            "buffer" : 0,
            "byteLength" : 75648,
            "byteOffset" : 170208,
            "target" : 34962
        },
        {
            "buffer" : 0,
            "byteLength" : 36864,
            "byteOffset" : 245856,
            "target" : 34963
        },
        {
            "buffer" : 0,
            "byteLength" : 1344,
            "byteOffset" : 282720
        },
        {
            "buffer" : 0,
            "byteLength" : 270372,
            "byteOffset" : 284064,
            "target" : 34962
        },
        {
            "buffer" : 0,
            "byteLength" : 270372,
            "byteOffset" : 554436,
            "target" : 34962
        },
        {
            "buffer" : 0,
            "byteLength" : 180248,
            "byteOffset" : 824808,
            "target" : 34962
        },
        {
            "buffer" : 0,
            "byteLength" : 180248,
            "byteOffset" : 1005056,
            "target" : 34962
        },
        {
            "buffer" : 0,
            "byteLength" : 90124,
            "byteOffset" : 1185304,
            "target" : 34962
        },
        {
            "buffer" : 0,
            "byteLength" : 360496,
            "byteOffset" : 1275428,
            "target" : 34962
        },
        {
            "buffer" : 0,
            "byteLength" : 220704,
            "byteOffset" : 1635924,
            "target" : 34963
        }
    ],
    "buffers" : [
        {
            "byteLength" : 1856628,
            "uri" : "0untitled.bin"
        }
    ]
}
