{
    "asset" : {
        "generator" : "Khronos glTF Blender I/O v3.3.27",
        "version" : "2.0"
    },
    "scene" : 0,
    "scenes" : [
        {
            "name" : "Scene",
            "nodes" : [
                23
            ]
        }
    ],
    "nodes" : [
        {
            "name" : "Bone.020",
            "rotation" : [
                6.638205007902798e-08,
                -5.960774274171854e-08,
                -0.010176539421081543,
                0.9999483227729797
            ],
            "translation" : [
                0,
                0.23162364959716797,
                1.0132789611816406e-06
            ]
        },
        {
            "children" : [
                0
            ],
            "name" : "Bone.003",
            "rotation" : [
                0,
                -7.450580596923828e-09,
                0,
                1
            ],
            "translation" : [
                0,
                0.5689005851745605,
                1.0132789611816406e-06
            ]
        },
        {
            "name" : "Bone.010",
            "rotation" : [
                9.074383022777965e-09,
                6.374398253683466e-07,
                0.03715737536549568,
                0.9993094205856323
            ],
            "scale" : [
                0.9999999403953552,
                0.9999999403953552,
                0.9999999403953552
            ],
            "translation" : [
                1.1920928955078125e-07,
                0.5969281196594238,
                7.157101435950608e-07
            ]
        },
        {
            "children" : [
                2
            ],
            "name" : "Bone.008",
            "rotation" : [
                1.4606334808320298e-08,
                -3.1901711849968706e-07,
                0.03126910701394081,
                0.9995110034942627
            ],
            "translation" : [
                1.1920928955078125e-07,
                0.6770162582397461,
                -8.434565756942902e-07
            ]
        },
        {
            "children" : [
                3
            ],
            "name" : "Bone.006",
            "rotation" : [
                5.760631083262524e-08,
                2.7462823481982923e-07,
                0.14776255190372467,
                0.9890228509902954
            ],
            "translation" : [
                -8.940696716308594e-08,
                0.6377869248390198,
                6.191157808643766e-09
            ]
        },
        {
            "children" : [
                4
            ],
            "name" : "Bone.004",
            "rotation" : [
                2.602929498607409e-07,
                -2.1217405787865573e-07,
                0.7819839119911194,
                0.6232986450195312
            ],
            "translation" : [
                0,
                0.5689005851745605,
                1.0132789611816406e-06
            ]
        },
        {
            "name" : "Bone.011",
            "rotation" : [
                -1.2059366838457208e-08,
                -4.0053436123344e-07,
                -0.03715737909078598,
                0.9993094205856323
            ],
            "scale" : [
                0.9999998807907104,
                0.9999999403953552,
                1
            ],
            "translation" : [
                0,
                0.5969280004501343,
                -7.044977792247664e-07
            ]
        },
        {
            "children" : [
                6
            ],
            "name" : "Bone.009",
            "rotation" : [
                1.0409096695696007e-08,
                1.6075783548785694e-07,
                -0.03126910701394081,
                0.9995110034942627
            ],
            "translation" : [
                0,
                0.6770161390304565,
                4.7008700221340405e-07
            ]
        },
        {
            "children" : [
                7
            ],
            "name" : "Bone.007",
            "rotation" : [
                3.871222986617795e-08,
                -3.570325191049051e-07,
                -0.14776255190372467,
                0.9890228509902954
            ],
            "translation" : [
                3.2782554626464844e-07,
                0.6377866864204407,
                -7.026546882116236e-07
            ]
        },
        {
            "children" : [
                8
            ],
            "name" : "Bone.005",
            "rotation" : [
                2.602929498607409e-07,
                2.0171478354313876e-07,
                -0.7819839119911194,
                0.6232986450195312
            ],
            "translation" : [
                0,
                0.5689005851745605,
                1.0132789611816406e-06
            ]
        },
        {
            "children" : [
                1,
                5,
                9
            ],
            "name" : "Bone.002",
            "rotation" : [
                0,
                -7.450580596923828e-09,
                0,
                1
            ],
            "translation" : [
                0,
                0.5567097663879395,
                1.0132789611816406e-06
            ]
        },
        {
            "children" : [
                10
            ],
            "name" : "Bone.001",
            "rotation" : [
                0,
                -7.450580596923828e-09,
                0,
                1
            ],
            "translation" : [
                0,
                0.5936425924301147,
                1.0132789611816406e-06
            ]
        },
        {
            "children" : [
                11
            ],
            "name" : "Bone",
            "rotation" : [
                0,
                -7.450580596923828e-09,
                0,
                1
            ],
            "translation" : [
                9.5367431640625e-07,
                -1.1920928955078125e-07,
                -8.940696716308594e-07
            ]
        },
        {
            "name" : "Bone.018",
            "rotation" : [
                -0.10345958918333054,
                -1.5730635993804754e-07,
                8.347067925740248e-09,
                0.9946337342262268
            ],
            "translation" : [
                1.1920928955078125e-07,
                0.4583713114261627,
                0
            ]
        },
        {
            "children" : [
                13
            ],
            "name" : "Bone.016",
            "rotation" : [
                -7.450580596923828e-09,
                -3.725290298461914e-09,
                -3.626315759719216e-15,
                1
            ],
            "translation" : [
                1.1920928955078125e-07,
                0.5558969378471375,
                -4.702985165749851e-07
            ]
        },
        {
            "children" : [
                14
            ],
            "name" : "Bone.014",
            "rotation" : [
                -0.6127638220787048,
                6.705672461748691e-08,
                3.8807024260734124e-09,
                0.7902661561965942
            ],
            "scale" : [
                1,
                1,
                0.9999998807907104
            ],
            "translation" : [
                7.988049901541672e-07,
                0.7048894762992859,
                5.960464477539063e-08
            ]
        },
        {
            "children" : [
                15
            ],
            "name" : "Bone.012",
            "rotation" : [
                -0.5588024854660034,
                0.43328940868377686,
                0.5588026642799377,
                0.43328946828842163
            ],
            "scale" : [
                1,
                1.0000001192092896,
                0.9999999403953552
            ],
            "translation" : [
                9.5367431640625e-07,
                -1.1920928955078125e-07,
                -8.940696716308594e-07
            ]
        },
        {
            "name" : "Bone.019",
            "rotation" : [
                -0.10345973074436188,
                2.471956861427316e-07,
                -1.7789815842661483e-08,
                0.994633674621582
            ],
            "scale" : [
                1.0000001192092896,
                1,
                1.0000001192092896
            ],
            "translation" : [
                -6.556510925292969e-07,
                0.45837128162384033,
                -2.384185791015625e-07
            ]
        },
        {
            "children" : [
                17
            ],
            "name" : "Bone.017",
            "rotation" : [
                3.885780056792456e-16,
                3.7252898543727042e-09,
                1.1102228922762585e-16,
                1
            ],
            "scale" : [
                1.0000001192092896,
                1,
                1.0000001192092896
            ],
            "translation" : [
                2.980232238769531e-07,
                0.5558971166610718,
                -2.384185791015625e-07
            ]
        },
        {
            "children" : [
                18
            ],
            "name" : "Bone.015",
            "rotation" : [
                -0.6160517930984497,
                8.507780258071307e-09,
                4.7253745805164726e-08,
                0.787705659866333
            ],
            "translation" : [
                -3.9096710224839626e-07,
                0.7285279631614685,
                5.960464477539063e-08
            ]
        },
        {
            "children" : [
                19
            ],
            "name" : "Bone.013",
            "rotation" : [
                -0.5569920539855957,
                -0.43561437726020813,
                -0.5569919943809509,
                0.43561434745788574
            ],
            "translation" : [
                9.5367431640625e-07,
                -1.1920928955078125e-07,
                -8.940696716308594e-07
            ]
        },
        {
            "mesh" : 0,
            "name" : "dark-pink-eyes.001",
            "skin" : 0
        },
        {
            "mesh" : 1,
            "name" : "teddy-pink",
            "skin" : 0
        },
        {
            "children" : [
                21,
                22,
                12,
                16,
                20
            ],
            "name" : "Armature.005",
            "rotation" : [
                0.9965218901634216,
                0,
                -0.08333159238100052,
                0
            ],
            "scale" : [
                -0.4467461109161377,
                -0.4467461109161377,
                -0.4467461109161377
            ],
            "translation" : [
                2.3416218757629395,
                0.5228022336959839,
                5.894881248474121
            ]
        }
    ],
    "materials" : [
        {
            "doubleSided" : true,
            "name" : "darkblue-eye.002",
            "pbrMetallicRoughness" : {
                "metallicFactor" : 0,
                "roughnessFactor" : 0
            }
        },
        {
            "doubleSided" : true,
            "name" : "dar",
            "pbrMetallicRoughness" : {
                "baseColorFactor" : [
                    0.9046609401702881,
                    0.2746768295764923,
                    0.439657062292099,
                    1
                ],
                "metallicFactor" : 0,
                "roughnessFactor" : 0.5
            }
        }
    ],
    "meshes" : [
        {
            "name" : "Cube.068",
            "primitives" : [
                {
                    "attributes" : {
                        "POSITION" : 0,
                        "NORMAL" : 1,
                        "TEXCOORD_0" : 2,
                        "JOINTS_0" : 3,
                        "WEIGHTS_0" : 4
                    },
                    "indices" : 5,
                    "material" : 0
                }
            ]
        },
        {
            "name" : "Cube.107",
            "primitives" : [
                {
                    "attributes" : {
                        "POSITION" : 7,
                        "NORMAL" : 8,
                        "TEXCOORD_0" : 9,
                        "COLOR_0" : 10,
                        "JOINTS_0" : 11,
                        "WEIGHTS_0" : 12
                    },
                    "indices" : 13,
                    "material" : 1
                }
            ]
        }
    ],
    "skins" : [
        {
            "inverseBindMatrices" : 6,
            "joints" : [
                12,
                11,
                10,
                1,
                0,
                5,
                4,
                3,
                2,
                9,
                8,
                7,
                6,
                16,
                15,
                14,
                13,
                20,
                19,
                18,
                17
            ],
            "name" : "Armature.005"
        }
    ],
    "accessors" : [
        {
            "bufferView" : 0,
            "componentType" : 5126,
            "count" : 4728,
            "max" : [
                3.0486536026000977,
                2.0384578704833984,
                6.572231769561768
            ],
            "min" : [
                1.7549792528152466,
                1.6879650354385376,
                6.044206142425537
            ],
            "type" : "VEC3"
        },
        {
            "bufferView" : 1,
            "componentType" : 5126,
            "count" : 4728,
            "type" : "VEC3"
        },
        {
            "bufferView" : 2,
            "componentType" : 5126,
            "count" : 4728,
            "type" : "VEC2"
        },
        {
            "bufferView" : 3,
            "componentType" : 5121,
            "count" : 4728,
            "type" : "VEC4"
        },
        {
            "bufferView" : 4,
            "componentType" : 5126,
            "count" : 4728,
            "type" : "VEC4"
        },
        {
            "bufferView" : 5,
            "componentType" : 5123,
            "count" : 18432,
            "type" : "SCALAR"
        },
        {
            "bufferView" : 6,
            "componentType" : 5126,
            "count" : 21,
            "type" : "MAT4"
        },
        {
            "bufferView" : 7,
            "componentType" : 5126,
            "count" : 22620,
            "max" : [
                3.3900418281555176,
                2.8800318241119385,
                6.64601469039917
            ],
            "min" : [
                1.29756760597229,
                -0.12082060426473618,
                5.1219563484191895
            ],
            "type" : "VEC3"
        },
        {
            "bufferView" : 8,
            "componentType" : 5126,
            "count" : 22620,
            "type" : "VEC3"
        },
        {
            "bufferView" : 9,
            "componentType" : 5126,
            "count" : 22620,
            "type" : "VEC2"
        },
        {
            "bufferView" : 10,
            "componentType" : 5123,
            "count" : 22620,
            "normalized" : true,
            "type" : "VEC4"
        },
        {
            "bufferView" : 11,
            "componentType" : 5121,
            "count" : 22620,
            "type" : "VEC4"
        },
        {
            "bufferView" : 12,
            "componentType" : 5126,
            "count" : 22620,
            "type" : "VEC4"
        },
        {
            "bufferView" : 13,
            "componentType" : 5123,
            "count" : 110352,
            "type" : "SCALAR"
        }
    ],
    "bufferViews" : [
        {
            "buffer" : 0,
            "byteLength" : 56736,
            "byteOffset" : 0,
            "target" : 34962
        },
        {
            "buffer" : 0,
            "byteLength" : 56736,
            "byteOffset" : 56736,
            "target" : 34962
        },
        {
            "buffer" : 0,
            "byteLength" : 37824,
            "byteOffset" : 113472,
            "target" : 34962
        },
        {
            "buffer" : 0,
            "byteLength" : 18912,
            "byteOffset" : 151296,
            "target" : 34962
        },
        {
            "buffer" : 0,
            "byteLength" : 75648,
            "byteOffset" : 170208,
            "target" : 34962
        },
        {
            "buffer" : 0,
            "byteLength" : 36864,
            "byteOffset" : 245856,
            "target" : 34963
        },
        {
            "buffer" : 0,
            "byteLength" : 1344,
            "byteOffset" : 282720
        },
        {
            "buffer" : 0,
            "byteLength" : 271440,
            "byteOffset" : 284064,
            "target" : 34962
        },
        {
            "buffer" : 0,
            "byteLength" : 271440,
            "byteOffset" : 555504,
            "target" : 34962
        },
        {
            "buffer" : 0,
            "byteLength" : 180960,
            "byteOffset" : 826944,
            "target" : 34962
        },
        {
            "buffer" : 0,
            "byteLength" : 180960,
            "byteOffset" : 1007904,
            "target" : 34962
        },
        {
            "buffer" : 0,
            "byteLength" : 90480,
            "byteOffset" : 1188864,
            "target" : 34962
        },
        {
            "buffer" : 0,
            "byteLength" : 361920,
            "byteOffset" : 1279344,
            "target" : 34962
        },
        {
            "buffer" : 0,
            "byteLength" : 220704,
            "byteOffset" : 1641264,
            "target" : 34963
        }
    ],
    "buffers" : [
        {
            "byteLength" : 1861968,
            "uri" : "data:application/octet-stream;base64,"
        }
    ]
}
