{
    "asset" : {
        "generator" : "Khronos glTF Blender I/O v3.3.27",
        "version" : "2.0"
    },
    "scene" : 0,
    "scenes" : [
        {
            "name" : "Scene",
            "nodes" : [
                23
            ]
        }
    ],
    "nodes" : [
        {
            "name" : "Bone.020",
            "rotation" : [
                6.625862880582645e-08,
                -5.435958527755247e-08,
                -0.010176540352404118,
                0.9999483227729797
            ],
            "translation" : [
                9.5367431640625e-07,
                0.23162269592285156,
                0
            ]
        },
        {
            "children" : [
                0
            ],
            "name" : "Bone.003",
            "translation" : [
                9.5367431640625e-07,
                0.5689010620117188,
                0
            ]
        },
        {
            "name" : "Bone.010",
            "rotation" : [
                -7.828508397089706e-10,
                5.10469817527337e-07,
                0.037157341837882996,
                0.9993094205856323
            ],
            "scale" : [
                0.9999999403953552,
                1.0000001192092896,
                1
            ],
            "translation" : [
                -6.277350621530786e-07,
                0.5969276428222656,
                -7.263388397404924e-07
            ]
        },
        {
            "children" : [
                2
            ],
            "name" : "Bone.008",
            "rotation" : [
                1.0414315632090165e-08,
                -1.56624381020265e-07,
                0.031269218772649765,
                0.9995110034942627
            ],
            "translation" : [
                7.622284101671539e-07,
                0.6770167350769043,
                -3.9215541391968145e-07
            ]
        },
        {
            "children" : [
                3
            ],
            "name" : "Bone.006",
            "rotation" : [
                5.089947663350358e-08,
                1.6627120658085914e-07,
                0.14776237308979034,
                0.9890229105949402
            ],
            "scale" : [
                1,
                1.0000001192092896,
                1
            ],
            "translation" : [
                -5.694992069038562e-07,
                0.6377861499786377,
                8.584568149672123e-07
            ]
        },
        {
            "children" : [
                4
            ],
            "name" : "Bone.004",
            "rotation" : [
                2.0041667880832392e-07,
                -1.5974677580743446e-07,
                0.7819839715957642,
                0.6232985258102417
            ],
            "translation" : [
                9.5367431640625e-07,
                0.5689010620117188,
                0
            ]
        },
        {
            "name" : "Bone.011",
            "rotation" : [
                -9.345570539665005e-09,
                -2.801839968924469e-07,
                -0.037157341837882996,
                0.9993094205856323
            ],
            "scale" : [
                0.9999999403953552,
                1.0000001192092896,
                1
            ],
            "translation" : [
                -3.5033400536121917e-07,
                0.5969276428222656,
                -3.711329839006794e-07
            ]
        },
        {
            "children" : [
                6
            ],
            "name" : "Bone.009",
            "rotation" : [
                8.552992758481537e-10,
                1.5110069861989928e-09,
                -0.031269218772649765,
                0.9995110034942627
            ],
            "translation" : [
                -1.6942003639996983e-06,
                0.6770172119140625,
                -3.230239258300571e-07
            ]
        },
        {
            "children" : [
                7
            ],
            "name" : "Bone.007",
            "rotation" : [
                3.977953255684952e-08,
                -2.4070067183856736e-07,
                -0.14776237308979034,
                0.9890229105949402
            ],
            "scale" : [
                1,
                1.0000001192092896,
                1
            ],
            "translation" : [
                8.079177860054187e-07,
                0.6377871036529541,
                4.07830498261319e-07
            ]
        },
        {
            "children" : [
                8
            ],
            "name" : "Bone.005",
            "rotation" : [
                2.0041667880832392e-07,
                1.5974677580743446e-07,
                -0.7819839715957642,
                0.6232985258102417
            ],
            "translation" : [
                9.5367431640625e-07,
                0.5689010620117188,
                0
            ]
        },
        {
            "children" : [
                1,
                5,
                9
            ],
            "name" : "Bone.002",
            "translation" : [
                9.5367431640625e-07,
                0.5567097663879395,
                0
            ]
        },
        {
            "children" : [
                10
            ],
            "name" : "Bone.001",
            "translation" : [
                9.5367431640625e-07,
                0.5936427116394043,
                0
            ]
        },
        {
            "children" : [
                11
            ],
            "name" : "Bone",
            "translation" : [
                9.5367431640625e-07,
                0,
                0.03803253173828125
            ]
        },
        {
            "name" : "Bone.018",
            "rotation" : [
                -0.10345964878797531,
                -8.803107931498744e-08,
                1.3458150149858739e-09,
                0.9946337342262268
            ],
            "translation" : [
                2.6345205696998164e-06,
                0.45837175846099854,
                -6.364610953824013e-07
            ]
        },
        {
            "children" : [
                13
            ],
            "name" : "Bone.016",
            "rotation" : [
                -7.450581485102248e-09,
                6.702899089857392e-15,
                -3.751228555483755e-15,
                1
            ],
            "translation" : [
                2.634520342326141e-06,
                0.5558977127075195,
                -5.496600010701513e-07
            ]
        },
        {
            "children" : [
                14
            ],
            "name" : "Bone.014",
            "rotation" : [
                -0.6127638220787048,
                6.630073556834759e-08,
                2.7895081800011212e-09,
                0.790266215801239
            ],
            "scale" : [
                1,
                0.9999999403953552,
                0.9999999403953552
            ],
            "translation" : [
                2.974006463318801e-07,
                0.704889178276062,
                4.870630618825089e-07
            ]
        },
        {
            "children" : [
                15
            ],
            "name" : "Bone.012",
            "rotation" : [
                -0.5588025450706482,
                0.43328940868377686,
                0.5588026642799377,
                0.43328943848609924
            ],
            "scale" : [
                1,
                1,
                0.9999999403953552
            ],
            "translation" : [
                9.5367431640625e-07,
                0,
                0.03803253173828125
            ]
        },
        {
            "name" : "Bone.019",
            "rotation" : [
                -0.10345979779958725,
                1.8575836691070435e-07,
                -1.1511207986814043e-08,
                0.9946337342262268
            ],
            "translation" : [
                -1.075253976523527e-06,
                0.4583711326122284,
                3.709442353283521e-08
            ]
        },
        {
            "children" : [
                17
            ],
            "name" : "Bone.017",
            "rotation" : [
                -2.3152915047279293e-16,
                0,
                -1.53987519316398e-16,
                1
            ],
            "scale" : [
                1,
                0.9999999403953552,
                1
            ],
            "translation" : [
                8.320945994455542e-07,
                0.5558977127075195,
                3.709465090651065e-08
            ]
        },
        {
            "children" : [
                18
            ],
            "name" : "Bone.015",
            "rotation" : [
                -0.6160517930984497,
                5.478125064684036e-09,
                5.0794973560641665e-08,
                0.7877057790756226
            ],
            "translation" : [
                7.911356192380481e-07,
                0.7285280227661133,
                -2.3433949536411092e-07
            ]
        },
        {
            "children" : [
                19
            ],
            "name" : "Bone.013",
            "rotation" : [
                -0.5569920539855957,
                -0.43561437726020813,
                -0.5569919943809509,
                0.43561434745788574
            ],
            "translation" : [
                9.5367431640625e-07,
                0,
                0.03803253173828125
            ]
        },
        {
            "mesh" : 0,
            "name" : "brown-eyes",
            "skin" : 0
        },
        {
            "mesh" : 1,
            "name" : "teddy-beige",
            "skin" : 0
        },
        {
            "children" : [
                21,
                22,
                12,
                16,
                20
            ],
            "name" : "Armature.004",
            "scale" : [
                0.4467461109161377,
                0.4467461109161377,
                0.4467461109161377
            ],
            "translation" : [
                4.607901573181152,
                2.929107666015625,
                12.785531044006348
            ]
        }
    ],
    "materials" : [
        {
            "doubleSided" : true,
            "name" : "darkgray-eye.001",
            "pbrMetallicRoughness" : {
                "metallicFactor" : 0,
                "roughnessFactor" : 0
            }
        },
        {
            "doubleSided" : true,
            "name" : "gray-teddy-material.001",
            "pbrMetallicRoughness" : {
                "baseColorFactor" : [
                    0.412542462348938,
                    0.2961380183696747,
                    0.24228112399578094,
                    1
                ],
                "metallicFactor" : 0,
                "roughnessFactor" : 0.5
            }
        }
    ],
    "meshes" : [
        {
            "name" : "Cube.002",
            "primitives" : [
                {
                    "attributes" : {
                        "POSITION" : 0,
                        "NORMAL" : 1,
                        "TEXCOORD_0" : 2,
                        "JOINTS_0" : 3,
                        "WEIGHTS_0" : 4
                    },
                    "indices" : 5,
                    "material" : 0
                }
            ]
        },
        {
            "name" : "Cube.001",
            "primitives" : [
                {
                    "attributes" : {
                        "POSITION" : 7,
                        "NORMAL" : 8,
                        "TEXCOORD_0" : 9,
                        "COLOR_0" : 10,
                        "JOINTS_0" : 11,
                        "WEIGHTS_0" : 12
                    },
                    "indices" : 13,
                    "material" : 1
                }
            ]
        }
    ],
    "skins" : [
        {
            "inverseBindMatrices" : 6,
            "joints" : [
                12,
                11,
                10,
                1,
                0,
                5,
                4,
                3,
                2,
                9,
                8,
                7,
                6,
                16,
                15,
                14,
                13,
                20,
                19,
                18,
                17
            ],
            "name" : "Armature.004"
        }
    ],
    "accessors" : [
        {
            "bufferView" : 0,
            "componentType" : 5126,
            "count" : 4728,
            "max" : [
                5.253413200378418,
                4.455052375793457,
                13.414152145385742
            ],
            "min" : [
                3.9480860233306885,
                4.104558944702148,
                13.044872283935547
            ],
            "type" : "VEC3"
        },
        {
            "bufferView" : 1,
            "componentType" : 5126,
            "count" : 4728,
            "type" : "VEC3"
        },
        {
            "bufferView" : 2,
            "componentType" : 5126,
            "count" : 4728,
            "type" : "VEC2"
        },
        {
            "bufferView" : 3,
            "componentType" : 5121,
            "count" : 4728,
            "type" : "VEC4"
        },
        {
            "bufferView" : 4,
            "componentType" : 5126,
            "count" : 4728,
            "type" : "VEC4"
        },
        {
            "bufferView" : 5,
            "componentType" : 5123,
            "count" : 18432,
            "type" : "SCALAR"
        },
        {
            "bufferView" : 6,
            "componentType" : 5126,
            "count" : 21,
            "type" : "MAT4"
        },
        {
            "bufferView" : 7,
            "componentType" : 5126,
            "count" : 22531,
            "max" : [
                5.661111354827881,
                5.275918483734131,
                13.573716163635254
            ],
            "min" : [
                3.5441055297851562,
                2.2750661373138428,
                12.033703804016113
            ],
            "type" : "VEC3"
        },
        {
            "bufferView" : 8,
            "componentType" : 5126,
            "count" : 22531,
            "type" : "VEC3"
        },
        {
            "bufferView" : 9,
            "componentType" : 5126,
            "count" : 22531,
            "type" : "VEC2"
        },
        {
            "bufferView" : 10,
            "componentType" : 5123,
            "count" : 22531,
            "normalized" : true,
            "type" : "VEC4"
        },
        {
            "bufferView" : 11,
            "componentType" : 5121,
            "count" : 22531,
            "type" : "VEC4"
        },
        {
            "bufferView" : 12,
            "componentType" : 5126,
            "count" : 22531,
            "type" : "VEC4"
        },
        {
            "bufferView" : 13,
            "componentType" : 5123,
            "count" : 110352,
            "type" : "SCALAR"
        }
    ],
    "bufferViews" : [
        {
            "buffer" : 0,
            "byteLength" : 56736,
            "byteOffset" : 0,
            "target" : 34962
        },
        {
            "buffer" : 0,
            "byteLength" : 56736,
            "byteOffset" : 56736,
            "target" : 34962
        },
        {
            "buffer" : 0,
            "byteLength" : 37824,
            "byteOffset" : 113472,
            "target" : 34962
        },
        {
            "buffer" : 0,
            "byteLength" : 18912,
            "byteOffset" : 151296,
            "target" : 34962
        },
        {
            "buffer" : 0,
            "byteLength" : 75648,
            "byteOffset" : 170208,
            "target" : 34962
        },
        {
            "buffer" : 0,
            "byteLength" : 36864,
            "byteOffset" : 245856,
            "target" : 34963
        },
        {
            "buffer" : 0,
            "byteLength" : 1344,
            "byteOffset" : 282720
        },
        {
            "buffer" : 0,
            "byteLength" : 270372,
            "byteOffset" : 284064,
            "target" : 34962
        },
        {
            "buffer" : 0,
            "byteLength" : 270372,
            "byteOffset" : 554436,
            "target" : 34962
        },
        {
            "buffer" : 0,
            "byteLength" : 180248,
            "byteOffset" : 824808,
            "target" : 34962
        },
        {
            "buffer" : 0,
            "byteLength" : 180248,
            "byteOffset" : 1005056,
            "target" : 34962
        },
        {
            "buffer" : 0,
            "byteLength" : 90124,
            "byteOffset" : 1185304,
            "target" : 34962
        },
        {
            "buffer" : 0,
            "byteLength" : 360496,
            "byteOffset" : 1275428,
            "target" : 34962
        },
        {
            "buffer" : 0,
            "byteLength" : 220704,
            "byteOffset" : 1635924,
            "target" : 34963
        }
    ],
    "buffers" : [
        {
            "byteLength" : 1856628,
            "uri" : "data:application/octet-stream;base64,"
        }
    ]
}
