{
    "asset" : {
        "generator" : "Khronos glTF Blender I/O v1.6.16",
        "version" : "2.0"
    },
    "scene" : 0,
    "scenes" : [
        {
            "name" : "Scene",
            "nodes" : [
                0,
                1,
                2,
                3,
                4
            ]
        }
    ],
    "nodes" : [
        {
            "mesh" : 0,
            "name" : "Cube.006",
            "translation" : [
                0.459413081407547,
                0.4487784206867218,
                3.5088233947753906
            ]
        },
        {
            "mesh" : 1,
            "name" : "Cylinder.003",
            "scale" : [
                0.05559442937374115,
                0.07057046890258789,
                0.05559442937374115
            ],
            "translation" : [
                -0.08206702768802643,
                0.34410226345062256,
                3.5102686882019043
            ]
        },
        {
            "mesh" : 2,
            "name" : "Cube.007",
            "translation" : [
                -0.08206702768802643,
                0.04388323053717613,
                3.5102686882019043
            ]
        },
        {
            "mesh" : 3,
            "name" : "Cylinder.004",
            "rotation" : [
                0.7071068286895752,
                0,
                0,
                0.7071068286895752
            ],
            "scale" : [
                0.022199267521500587,
                0.022199267521500587,
                0.022199267521500587
            ],
            "translation" : [
                -0.08206702768802643,
                0.03008657693862915,
                3.7173333168029785
            ]
        },
        {
            "mesh" : 4,
            "name" : "Cylinder.005",
            "rotation" : [
                0.7071068286895752,
                0,
                0,
                0.7071068286895752
            ],
            "scale" : [
                0.022199267521500587,
                0.022199267521500587,
                0.022199267521500587
            ],
            "translation" : [
                -0.08206702768802643,
                0.03008657693862915,
                3.7194621562957764
            ]
        }
    ],
    "materials" : [
        {
            "doubleSided" : true,
            "name" : "Material.001",
            "pbrMetallicRoughness" : {
                "baseColorFactor" : [
                    0.016796845942735672,
                    0.016796845942735672,
                    0.016796845942735672,
                    1
                ],
                "metallicFactor" : 0,
                "roughnessFactor" : 0.5
            }
        }
    ],
    "meshes" : [
        {
            "name" : "Cube.010",
            "primitives" : [
                {
                    "attributes" : {
                        "POSITION" : 0,
                        "NORMAL" : 1,
                        "TEXCOORD_0" : 2
                    },
                    "indices" : 3,
                    "material" : 0
                }
            ]
        },
        {
            "name" : "Cylinder.003",
            "primitives" : [
                {
                    "attributes" : {
                        "POSITION" : 4,
                        "NORMAL" : 5,
                        "TEXCOORD_0" : 6
                    },
                    "indices" : 7,
                    "material" : 0
                }
            ]
        },
        {
            "name" : "Cube.011",
            "primitives" : [
                {
                    "attributes" : {
                        "POSITION" : 8,
                        "NORMAL" : 9,
                        "TEXCOORD_0" : 10
                    },
                    "indices" : 11,
                    "material" : 0
                }
            ]
        },
        {
            "name" : "Cylinder.004",
            "primitives" : [
                {
                    "attributes" : {
                        "POSITION" : 12,
                        "NORMAL" : 13,
                        "TEXCOORD_0" : 14
                    },
                    "indices" : 15,
                    "material" : 0
                }
            ]
        },
        {
            "name" : "Cylinder.005",
            "primitives" : [
                {
                    "attributes" : {
                        "POSITION" : 16,
                        "NORMAL" : 17,
                        "TEXCOORD_0" : 18
                    },
                    "indices" : 19,
                    "material" : 0
                }
            ]
        }
    ],
    "accessors" : [
        {
            "bufferView" : 0,
            "componentType" : 5126,
            "count" : 82,
            "max" : [
                0.7051883935928345,
                0.011600466445088387,
                0.35367846488952637
            ],
            "min" : [
                -0.7051884531974792,
                -0.031900227069854736,
                -0.35367846488952637
            ],
            "type" : "VEC3"
        },
        {
            "bufferView" : 1,
            "componentType" : 5126,
            "count" : 82,
            "type" : "VEC3"
        },
        {
            "bufferView" : 2,
            "componentType" : 5126,
            "count" : 82,
            "type" : "VEC2"
        },
        {
            "bufferView" : 3,
            "componentType" : 5123,
            "count" : 228,
            "type" : "SCALAR"
        },
        {
            "bufferView" : 4,
            "componentType" : 5126,
            "count" : 100,
            "max" : [
                20.02185821533203,
                1,
                0.9944330453872681
            ],
            "min" : [
                -0.5422061681747437,
                -4.0538129806518555,
                -0.9944330453872681
            ],
            "type" : "VEC3"
        },
        {
            "bufferView" : 5,
            "componentType" : 5126,
            "count" : 100,
            "type" : "VEC3"
        },
        {
            "bufferView" : 6,
            "componentType" : 5126,
            "count" : 100,
            "type" : "VEC2"
        },
        {
            "bufferView" : 7,
            "componentType" : 5123,
            "count" : 276,
            "type" : "SCALAR"
        },
        {
            "bufferView" : 8,
            "componentType" : 5126,
            "count" : 144,
            "max" : [
                1.1492831707000732,
                0.03169544041156769,
                0.2285364419221878
            ],
            "min" : [
                -0.066322922706604,
                0.009435780346393585,
                -0.23142702877521515
            ],
            "type" : "VEC3"
        },
        {
            "bufferView" : 9,
            "componentType" : 5126,
            "count" : 144,
            "type" : "VEC3"
        },
        {
            "bufferView" : 10,
            "componentType" : 5126,
            "count" : 144,
            "type" : "VEC2"
        },
        {
            "bufferView" : 11,
            "componentType" : 5123,
            "count" : 408,
            "type" : "SCALAR"
        },
        {
            "bufferView" : 12,
            "componentType" : 5126,
            "count" : 360,
            "max" : [
                49.78360366821289,
                0.32450371980667114,
                1.0000003576278687
            ],
            "min" : [
                -1,
                -19.109800338745117,
                -1.0000003576278687
            ],
            "type" : "VEC3"
        },
        {
            "bufferView" : 13,
            "componentType" : 5126,
            "count" : 360,
            "type" : "VEC3"
        },
        {
            "bufferView" : 14,
            "componentType" : 5126,
            "count" : 360,
            "type" : "VEC2"
        },
        {
            "bufferView" : 15,
            "componentType" : 5123,
            "count" : 1056,
            "type" : "SCALAR"
        },
        {
            "bufferView" : 16,
            "componentType" : 5126,
            "count" : 720,
            "max" : [
                49.78360366821289,
                0.6614473462104797,
                1.0000003576278687
            ],
            "min" : [
                -1,
                -19.638538360595703,
                -1.0000003576278687
            ],
            "type" : "VEC3"
        },
        {
            "bufferView" : 17,
            "componentType" : 5126,
            "count" : 720,
            "type" : "VEC3"
        },
        {
            "bufferView" : 18,
            "componentType" : 5126,
            "count" : 720,
            "type" : "VEC2"
        },
        {
            "bufferView" : 19,
            "componentType" : 5123,
            "count" : 2784,
            "type" : "SCALAR"
        }
    ],
    "bufferViews" : [
        {
            "buffer" : 0,
            "byteLength" : 984,
            "byteOffset" : 0
        },
        {
            "buffer" : 0,
            "byteLength" : 984,
            "byteOffset" : 984
        },
        {
            "buffer" : 0,
            "byteLength" : 656,
            "byteOffset" : 1968
        },
        {
            "buffer" : 0,
            "byteLength" : 456,
            "byteOffset" : 2624
        },
        {
            "buffer" : 0,
            "byteLength" : 1200,
            "byteOffset" : 3080
        },
        {
            "buffer" : 0,
            "byteLength" : 1200,
            "byteOffset" : 4280
        },
        {
            "buffer" : 0,
            "byteLength" : 800,
            "byteOffset" : 5480
        },
        {
            "buffer" : 0,
            "byteLength" : 552,
            "byteOffset" : 6280
        },
        {
            "buffer" : 0,
            "byteLength" : 1728,
            "byteOffset" : 6832
        },
        {
            "buffer" : 0,
            "byteLength" : 1728,
            "byteOffset" : 8560
        },
        {
            "buffer" : 0,
            "byteLength" : 1152,
            "byteOffset" : 10288
        },
        {
            "buffer" : 0,
            "byteLength" : 816,
            "byteOffset" : 11440
        },
        {
            "buffer" : 0,
            "byteLength" : 4320,
            "byteOffset" : 12256
        },
        {
            "buffer" : 0,
            "byteLength" : 4320,
            "byteOffset" : 16576
        },
        {
            "buffer" : 0,
            "byteLength" : 2880,
            "byteOffset" : 20896
        },
        {
            "buffer" : 0,
            "byteLength" : 2112,
            "byteOffset" : 23776
        },
        {
            "buffer" : 0,
            "byteLength" : 8640,
            "byteOffset" : 25888
        },
        {
            "buffer" : 0,
            "byteLength" : 8640,
            "byteOffset" : 34528
        },
        {
            "buffer" : 0,
            "byteLength" : 5760,
            "byteOffset" : 43168
        },
        {
            "buffer" : 0,
            "byteLength" : 5568,
            "byteOffset" : 48928
        }
    ],
    "buffers" : [
        {
            "byteLength" : 54496,
            "uri" : "data:application/octet-stream;base64,"
        }
    ]
}
