{
    "asset" : {
        "generator" : "Khronos glTF Blender I/O v3.3.32",
        "version" : "2.0"
    },
    "scene" : 0,
    "scenes" : [
        {
            "name" : "Scene",
            "nodes" : [
                5
            ]
        }
    ],
    "nodes" : [
        {
            "mesh" : 0,
            "name" : "Circle.001_Red_0"
        },
        {
            "mesh" : 1,
            "name" : "Circle.001_White_0"
        },
        {
            "children" : [
                0,
                1
            ],
            "name" : "Circle.001",
            "rotation" : [
                -0.7071068286895752,
                0,
                0,
                0.7071067094802856
            ],
            "scale" : [
                99.99999237060547,
                99.99998474121094,
                99.99998474121094
            ],
            "translation" : [
                0,
                0,
                -6.6468996919866186e-06
            ]
        },
        {
            "children" : [
                2
            ],
            "name" : "RootNode",
            "translation" : [
                0,
                0,
                -6.6468996919866186e-06
            ]
        },
        {
            "children" : [
                3
            ],
            "name" : "Candy.fbx",
            "rotation" : [
                0.7071068286895752,
                0,
                0,
                0.7071067094802856
            ],
            "scale" : [
                0.009999999776482582,
                0.010000000707805157,
                0.010000000707805157
            ]
        },
        {
            "children" : [
                4
            ],
            "name" : "Sketchfab_model",
            "rotation" : [
                -0.7088789939880371,
                0.7053301334381104,
                0,
                4.702432049811113e-16
            ],
            "translation" : [
                1.470434546470642,
                1.4666694402694702,
                -0.01116364635527134
            ]
        }
    ],
    "materials" : [
        {
            "doubleSided" : true,
            "name" : "material",
            "pbrMetallicRoughness" : {
                "baseColorFactor" : [
                    0.9046607613563538,
                    0.5840780138969421,
                    0.37626227736473083,
                    1
                ],
                "metallicFactor" : 0,
                "roughnessFactor" : 0.945559024810791
            }
        },
        {
            "doubleSided" : true,
            "name" : "White",
            "pbrMetallicRoughness" : {
                "metallicFactor" : 0,
                "roughnessFactor" : 0.7599999904632568
            }
        }
    ],
    "meshes" : [
        {
            "name" : "Circle.001_Red_0",
            "primitives" : [
                {
                    "attributes" : {
                        "POSITION" : 0,
                        "NORMAL" : 1,
                        "TEXCOORD_0" : 2
                    },
                    "indices" : 3,
                    "material" : 0
                }
            ]
        },
        {
            "name" : "Circle.001_White_0",
            "primitives" : [
                {
                    "attributes" : {
                        "POSITION" : 4,
                        "NORMAL" : 5,
                        "TEXCOORD_0" : 6
                    },
                    "indices" : 7,
                    "material" : 1
                }
            ]
        }
    ],
    "accessors" : [
        {
            "bufferView" : 0,
            "componentType" : 5126,
            "count" : 2011,
            "max" : [
                4.058477878570557,
                1.1797975301742554,
                0.17979760468006134
            ],
            "min" : [
                -1.153160572052002,
                -1.1574358940124512,
                -0.17979761958122253
            ],
            "type" : "VEC3"
        },
        {
            "bufferView" : 1,
            "componentType" : 5126,
            "count" : 2011,
            "type" : "VEC3"
        },
        {
            "bufferView" : 2,
            "componentType" : 5126,
            "count" : 2011,
            "type" : "VEC2"
        },
        {
            "bufferView" : 3,
            "componentType" : 5123,
            "count" : 8496,
            "type" : "SCALAR"
        },
        {
            "bufferView" : 4,
            "componentType" : 5126,
            "count" : 2082,
            "max" : [
                4.086894989013672,
                1.1797975301742554,
                0.17979760468006134
            ],
            "min" : [
                -1.153160572052002,
                -1.1574358940124512,
                -0.17979761958122253
            ],
            "type" : "VEC3"
        },
        {
            "bufferView" : 5,
            "componentType" : 5126,
            "count" : 2082,
            "type" : "VEC3"
        },
        {
            "bufferView" : 6,
            "componentType" : 5126,
            "count" : 2082,
            "type" : "VEC2"
        },
        {
            "bufferView" : 7,
            "componentType" : 5123,
            "count" : 8784,
            "type" : "SCALAR"
        }
    ],
    "bufferViews" : [
        {
            "buffer" : 0,
            "byteLength" : 24132,
            "byteOffset" : 0,
            "target" : 34962
        },
        {
            "buffer" : 0,
            "byteLength" : 24132,
            "byteOffset" : 24132,
            "target" : 34962
        },
        {
            "buffer" : 0,
            "byteLength" : 16088,
            "byteOffset" : 48264,
            "target" : 34962
        },
        {
            "buffer" : 0,
            "byteLength" : 16992,
            "byteOffset" : 64352,
            "target" : 34963
        },
        {
            "buffer" : 0,
            "byteLength" : 24984,
            "byteOffset" : 81344,
            "target" : 34962
        },
        {
            "buffer" : 0,
            "byteLength" : 24984,
            "byteOffset" : 106328,
            "target" : 34962
        },
        {
            "buffer" : 0,
            "byteLength" : 16656,
            "byteOffset" : 131312,
            "target" : 34962
        },
        {
            "buffer" : 0,
            "byteLength" : 17568,
            "byteOffset" : 147968,
            "target" : 34963
        }
    ],
    "buffers" : [
        {
            "byteLength" : 165536,
            "uri" : "data:application/octet-stream;base64,"
        }
    ]
}
