# Blender 3.3.1
# www.blender.org
mtllib chair.mtl
o Prop_Table_02
v -16.235046 0.722900 -7.489435
v -16.190704 0.722900 -7.524047
v -16.235046 0.722900 -7.435552
v -16.290102 0.722900 -7.435552
v -16.290102 0.722900 -7.489435
v -16.235046 0.069855 -7.435552
v -16.290102 0.069855 -7.435552
v -16.290102 0.069855 -7.489435
v -16.235046 0.069855 -7.489435
v -16.190704 0.782692 -7.524047
v -16.180073 0.819855 -7.534452
v -16.180073 0.782353 -7.534452
v -16.235046 0.722900 -6.943304
v -16.190704 0.722900 -7.216370
v -16.190704 0.722900 -6.908692
v -16.235046 0.722900 -6.997188
v -16.290102 0.722900 -6.997188
v -16.290102 0.722900 -6.943304
v -16.235046 0.069855 -6.997188
v -16.290102 0.069855 -6.997188
v -16.290102 0.069855 -6.943304
v -16.235046 0.069855 -6.943304
v -16.190704 0.782692 -6.908692
v -16.180073 0.819855 -6.898287
v -16.180073 0.782353 -6.898287
v -16.775101 0.722900 -7.489435
v -16.819443 0.722900 -7.524047
v -16.775101 0.722900 -7.435552
v -16.720045 0.722900 -7.435552
v -16.720045 0.722900 -7.489435
v -16.775101 0.069855 -7.435552
v -16.720045 0.069855 -7.435552
v -16.720045 0.069855 -7.489435
v -16.775101 0.069855 -7.489435
v -16.819443 0.782692 -7.524047
v -16.830074 0.819855 -7.534452
v -16.830074 0.782353 -7.534452
v -16.775101 0.722900 -6.943304
v -16.819443 0.722900 -7.216370
v -16.505074 0.722900 -6.908692
v -16.819443 0.722900 -6.908692
v -16.775101 0.722900 -6.997188
v -16.720045 0.722900 -6.997188
v -16.720045 0.722900 -6.943304
v -16.775101 0.069855 -6.997188
v -16.720045 0.069855 -6.997188
v -16.720045 0.069855 -6.943304
v -16.775101 0.069855 -6.943304
v -16.819443 0.782692 -6.908692
v -16.830074 0.819855 -6.898287
v -16.830074 0.782353 -6.898287
v -16.745079 0.571829 -6.945207
v -16.745079 0.721925 -6.945207
v -16.265068 0.571829 -6.945207
v -16.265068 0.721925 -6.945207
v -16.303011 0.584659 -6.945207
v -16.707136 0.709095 -6.945207
v -16.707136 0.584659 -6.945207
v -16.303011 0.709095 -6.928846
v -16.303011 0.584659 -6.928846
v -16.707136 0.709095 -6.928846
v -16.707136 0.571829 -6.945207
v -16.265068 0.709095 -6.945207
v -16.303011 0.709095 -6.945207
v -16.707136 0.584659 -6.928846
v -16.745079 0.571829 -7.482200
v -16.745079 0.721925 -7.482200
v -16.265068 0.571829 -7.482200
v -16.265068 0.721925 -7.482200
v -16.523764 0.630980 -6.900141
v -16.523764 0.662774 -6.900141
v -16.486382 0.630980 -6.900141
v -16.486382 0.662774 -6.900141
v -16.518663 0.633229 -6.837803
v -16.518663 0.660525 -6.837803
v -16.491484 0.660525 -6.837803
v -16.491484 0.633229 -6.837803
v -16.529940 0.624331 -6.885388
v -16.529409 0.620602 -6.856018
v -16.529409 0.673152 -6.856018
v -16.529940 0.669423 -6.885388
v -16.480200 0.669423 -6.885388
v -16.480728 0.673152 -6.856018
v -16.480728 0.620602 -6.856018
v -16.480200 0.624331 -6.885388
v -16.521679 0.632754 -6.920644
v -16.530773 0.646877 -6.900141
v -16.521679 0.661000 -6.920644
v -16.488468 0.632754 -6.920644
v -16.488468 0.661000 -6.920644
v -16.479374 0.646877 -6.900141
v -16.505074 0.625018 -6.900141
v -16.505074 0.668735 -6.900141
v -16.521002 0.646877 -6.836722
v -16.489143 0.646877 -6.836722
v -16.505074 0.631210 -6.836722
v -16.505074 0.662544 -6.836722
v -16.531031 0.620790 -6.872206
v -16.538538 0.646877 -6.856018
v -16.531031 0.672964 -6.872206
v -16.539265 0.646877 -6.885388
v -16.479107 0.672964 -6.872206
v -16.471601 0.646877 -6.856018
v -16.479107 0.620790 -6.872206
v -16.470873 0.646877 -6.885388
v -16.505070 0.615877 -6.885388
v -16.505070 0.610749 -6.856018
v -16.505070 0.677877 -6.885388
v -16.505070 0.683005 -6.856018
v -16.524818 0.667778 -6.843789
v -16.524818 0.625976 -6.843789
v -16.526852 0.665576 -6.891182
v -16.526852 0.628178 -6.891182
v -16.485325 0.625976 -6.843789
v -16.483292 0.628178 -6.891182
v -16.485325 0.667778 -6.843789
v -16.483292 0.665576 -6.891182
v -16.527922 0.646877 -6.920998
v -16.482225 0.646877 -6.920998
v -16.478039 0.646877 -6.843682
v -16.505074 0.627443 -6.920998
v -16.505074 0.666311 -6.920998
v -16.505072 0.621166 -6.891182
v -16.505072 0.618327 -6.843682
v -16.505072 0.675427 -6.843682
v -16.505074 0.646877 -6.834452
v -16.535019 0.646877 -6.891182
v -16.505072 0.672588 -6.891182
v -16.475122 0.646877 -6.891182
v -16.540766 0.646877 -6.872206
v -16.469370 0.646877 -6.872206
v -16.505068 0.611008 -6.872206
v -16.505068 0.682746 -6.872206
v -16.532104 0.646877 -6.843682
vn -0.0000 -0.0000 -1.0000
vn -1.0000 -0.0000 -0.0000
vn 1.0000 -0.0000 -0.0000
vn -0.0000 -0.0000 1.0000
vn 0.0160 -0.9997 -0.0163
vn -0.0000 -1.0000 -0.0000
vn -0.0000 1.0000 -0.0000
vn -0.0160 -0.9997 0.0163
vn -0.6373 -0.7144 -0.2890
vn -0.9542 -0.0000 -0.2991
vn -0.9906 -0.0000 -0.1370
vn -0.6594 -0.7405 -0.1295
vn -0.6373 0.7144 -0.2890
vn -0.6594 0.7405 -0.1295
vn 0.9906 -0.0000 -0.1371
vn 0.6594 0.7405 -0.1296
vn 0.6372 0.7144 -0.2891
vn 0.9542 -0.0000 -0.2993
vn 0.6594 -0.7405 -0.1296
vn 0.6372 -0.7144 -0.2891
vn 0.6803 -0.6799 0.2737
vn 0.9584 -0.0000 0.2854
vn 0.7628 -0.0000 0.6467
vn 0.5371 -0.5093 0.6724
vn 0.6803 0.6799 0.2737
vn 0.5371 0.5093 0.6724
vn 0.2986 0.2778 0.9131
vn 0.3620 -0.0000 0.9322
vn 0.2986 -0.2778 0.9131
vn -0.0000 -0.9931 -0.1169
vn -0.0000 -0.9644 -0.2644
vn -0.0000 0.9931 -0.1169
vn -0.0000 0.9644 -0.2644
vn -0.0000 -0.8371 -0.5470
vn -0.5711 -0.6057 -0.5540
vn 0.5710 -0.6056 -0.5542
vn 0.6366 -0.6399 -0.4304
vn -0.0000 -0.8768 -0.4808
vn -0.6367 -0.6399 -0.4303
vn -0.6803 -0.6799 0.2736
vn -0.0000 -0.9669 0.2551
vn -0.0000 -0.7283 0.6852
vn -0.5372 -0.5094 0.6723
vn -0.0000 -0.3323 0.9432
vn -0.2986 -0.2778 0.9130
vn -0.0000 0.9669 0.2551
vn -0.0000 0.7283 0.6852
vn -0.6803 0.6799 0.2736
vn -0.5372 0.5094 0.6723
vn -0.2986 0.2778 0.9130
vn -0.0000 0.3323 0.9432
vn -0.3621 -0.0000 0.9321
vn -0.8436 -0.0000 -0.5370
vn -0.5711 0.6057 -0.5540
vn -0.9277 -0.0000 -0.3732
vn -0.6367 0.6399 -0.4303
vn -0.0000 0.8371 -0.5470
vn 0.5710 0.6056 -0.5542
vn -0.0000 0.8768 -0.4808
vn 0.6366 0.6399 -0.4304
vn 0.8434 -0.0000 -0.5373
vn 0.9277 -0.0000 -0.3734
vn -0.9585 -0.0000 0.2852
vn -0.9999 -0.0000 -0.0165
vn -0.7021 -0.7066 -0.0885
vn -0.7021 0.7066 -0.0885
vn 0.9999 -0.0000 -0.0165
vn 0.7021 0.7065 -0.0885
vn 0.7021 -0.7065 -0.0885
vn -0.0000 -0.9884 -0.1520
vn -0.0000 0.9884 -0.1520
vn -0.7629 -0.0000 0.6465
vt 0.303560 0.642516
vt 0.304202 0.641875
vt 0.303560 0.643021
vt 0.303056 0.643021
vt 0.303055 0.642516
vt 0.303560 0.643021
vt 0.303056 0.643021
vt 0.303055 0.642516
vt 0.303560 0.642516
vt 0.306913 0.641875
vt 0.307777 0.641875
vt 0.306913 0.641875
vt 0.303560 0.642516
vt 0.304202 0.643662
vt 0.304202 0.641875
vt 0.303560 0.643021
vt 0.303056 0.643021
vt 0.303055 0.642516
vt 0.303560 0.643021
vt 0.303056 0.643021
vt 0.303055 0.642516
vt 0.303560 0.642516
vt 0.306913 0.641875
vt 0.307777 0.641875
vt 0.306913 0.641875
vt 0.303560 0.642516
vt 0.304202 0.641875
vt 0.303560 0.643021
vt 0.303056 0.643021
vt 0.303055 0.642516
vt 0.303560 0.643021
vt 0.303056 0.643021
vt 0.303055 0.642516
vt 0.303560 0.642516
vt 0.306913 0.641875
vt 0.307777 0.641875
vt 0.306913 0.641875
vt 0.303560 0.642516
vt 0.304202 0.643662
vt 0.304202 0.640087
vt 0.302414 0.641875
vt 0.304202 0.641875
vt 0.303560 0.643021
vt 0.303056 0.643021
vt 0.303055 0.642516
vt 0.303560 0.643021
vt 0.303056 0.643021
vt 0.303055 0.642516
vt 0.303560 0.642516
vt 0.306913 0.641875
vt 0.307777 0.641875
vt 0.306913 0.641875
vt 0.263969 0.642841
vt 0.267544 0.642841
vt 0.263969 0.639265
vt 0.267544 0.639265
vt 0.265160 0.640457
vt 0.266352 0.641649
vt 0.265160 0.641649
vt 0.266352 0.640457
vt 0.265160 0.640457
vt 0.266352 0.641649
vt 0.263969 0.641649
vt 0.266352 0.639265
vt 0.266352 0.640457
vt 0.265160 0.641649
vt 0.263969 0.642841
vt 0.267544 0.642841
vt 0.263969 0.639265
vt 0.267544 0.639265
vt 0.300626 0.645450
vt 0.304202 0.634724
vt 0.307777 0.634724
vt 0.311352 0.645450
vt 0.304202 0.644854
vt 0.307777 0.644854
vt 0.300626 0.645450
vt 0.304202 0.649026
vt 0.304202 0.634724
vt 0.311352 0.645450
vt 0.307777 0.649026
vt 0.307777 0.634724
vt 0.307777 0.645450
vt 0.304202 0.645450
vt 0.304202 0.634724
vt 0.300626 0.645450
vt 0.300626 0.645450
vt 0.304202 0.634724
vt 0.311352 0.645450
vt 0.307777 0.634724
vt 0.307777 0.634724
vt 0.311352 0.645450
vt 0.307777 0.645450
vt 0.307777 0.645450
vt 0.304202 0.645450
vt 0.304202 0.645450
vt 0.304202 0.636512
vt 0.300626 0.643662
vt 0.305989 0.635220
vt 0.307777 0.636512
vt 0.311352 0.643662
vt 0.304202 0.643588
vt 0.307777 0.643588
vt 0.305989 0.644854
vt 0.302414 0.644904
vt 0.309565 0.644904
vt 0.305989 0.649026
vt 0.305989 0.634724
vt 0.305989 0.645947
vt 0.302414 0.645450
vt 0.304202 0.647238
vt 0.309565 0.645450
vt 0.307777 0.647238
vt 0.304202 0.634724
vt 0.300626 0.645450
vt 0.305989 0.634724
vt 0.307777 0.634724
vt 0.311352 0.645450
vt 0.305989 0.634724
vt 0.307777 0.645450
vt 0.305989 0.645450
vt 0.304202 0.645450
vt 0.305989 0.645450
vt 0.302414 0.645450
vt 0.302414 0.645450
vt 0.309565 0.645450
vt 0.309565 0.645450
vt 0.311352 0.645450
vt 0.307777 0.634724
vt 0.300626 0.645450
vt 0.304202 0.634724
vt 0.307777 0.634724
vt 0.311352 0.645450
vt 0.300626 0.645450
vt 0.304202 0.634724
vt 0.304202 0.645463
vt 0.304202 0.645376
vt 0.307777 0.645463
vt 0.307777 0.645376
vt 0.305989 0.636561
vt 0.305989 0.643588
vt 0.305989 0.645500
vt 0.302414 0.643600
vt 0.309565 0.643600
vt 0.302414 0.645388
vt 0.302414 0.645450
vt 0.309565 0.645450
vt 0.305989 0.647287
vt 0.305989 0.634773
vt 0.309565 0.645388
vt 0.305989 0.645376
vt 0.305989 0.634724
vt 0.305989 0.645450
vt 0.302414 0.645450
vt 0.309565 0.645450
vt 0.305989 0.634724
s 0
usemtl PandaMat
f 5/5/1 1/1/1 9/9/1 8/8/1
f 2/2/1 27/27/1 35/35/1 10/10/1
f 4/4/2 5/5/2 8/8/2 7/7/2
f 1/1/3 3/3/3 6/6/3 9/9/3
f 3/3/4 4/4/4 7/7/4 6/6/4
f 49/50/5 23/23/5 25/25/5 51/52/5 37/37/5 35/35/5
f 51/52/2 50/51/2 36/36/2 37/37/2
f 24/24/4 50/51/4 51/52/4 25/25/4
f 18/18/4 21/21/4 22/22/4 13/13/4
f 58/59/4 57/58/4 64/65/4 63/64/4 55/56/4 53/54/4 52/53/4 62/63/4
f 16/16/6 14/14/6 15/15/6 13/13/6
f 40/41/6 44/45/6 43/44/6 4/4/6 3/3/6 14/14/6 16/16/6 17/17/6 18/18/6 13/13/6 15/15/6
f 53/54/7 55/56/7 69/70/7 67/68/7
f 17/17/2 20/20/2 21/21/2 18/18/2
f 13/13/3 22/22/3 19/19/3 16/16/3
f 16/16/1 19/19/1 20/20/1 17/17/1
f 12/12/1 37/37/1 36/36/1 11/11/1
f 30/30/1 33/33/1 34/34/1 26/26/1
f 28/28/6 39/39/6 27/27/6 26/26/6
f 25/25/3 12/12/3 11/11/3 24/24/3
f 41/42/2 49/50/2 35/35/2 27/27/2 39/39/2
f 29/29/3 32/32/3 33/33/3 30/30/3
f 26/26/2 34/34/2 31/31/2 28/28/2
f 28/28/4 31/31/4 32/32/4 29/29/4
f 44/45/4 38/38/4 48/49/4 47/48/4
f 15/15/3 14/14/3 2/2/3 10/10/3 23/23/3
f 23/23/4 49/50/4 41/42/4 40/40/4 15/15/4
f 43/44/3 44/45/3 47/48/3 46/47/3
f 38/38/2 42/43/2 45/46/2 48/49/2
f 42/43/1 43/44/1 46/47/1 45/46/1
f 50/51/7 24/24/7 11/11/7 36/36/7
f 54/55/4 63/64/4 64/65/4 56/57/4 58/59/4 62/63/4
f 57/58/2 58/59/2 65/66/2 61/62/2
f 60/61/4 59/60/4 61/62/4 65/66/4
f 56/57/3 64/65/3 59/60/3 60/61/3
f 58/59/6 56/57/6 60/61/6 65/66/6
f 64/65/7 57/58/7 61/62/7 59/60/7
f 38/38/6 44/45/6 40/41/6 41/42/6 39/39/6 28/28/6 29/29/6 30/30/6 26/26/6 27/27/6 2/2/6 14/14/6 3/3/6 1/1/6 5/5/6 4/4/6 43/44/6 42/43/6
f 63/64/3 54/55/3 68/69/3 69/70/3 55/56/3
f 54/55/6 62/63/6 52/53/6 66/67/6 68/69/6
f 52/53/2 53/54/2 67/68/2 66/67/2
f 67/68/1 69/70/1 68/69/1 66/67/1
f 35/35/8 37/37/8 12/12/8 25/25/8 23/23/8 10/10/8
s 1
f 70/72/9 87/99/10 118/140/11 86/97/12
f 87/99/10 71/73/13 88/100/14 118/140/11
f 119/141/15 90/103/16 73/76/17 91/104/18
f 89/102/19 119/141/15 91/104/18 72/75/20
f 84/95/21 103/121/22 120/142/23 114/136/24
f 103/121/22 83/94/25 116/138/26 120/142/23
f 120/142/23 116/138/26 76/83/27 95/109/28
f 114/136/24 120/142/23 95/109/28 77/84/29
f 121/143/30 89/102/19 72/75/20 92/105/31
f 86/98/12 121/143/30 92/105/31 70/71/9
f 122/144/32 88/101/14 71/74/13 93/106/33
f 90/103/16 122/144/32 93/106/33 73/76/17
f 70/71/9 92/105/31 123/145/34 113/134/35
f 92/105/31 72/75/20 115/137/36 123/145/34
f 123/145/34 115/137/36 85/96/37 106/124/38
f 113/134/35 123/145/34 106/124/38 78/86/39
f 79/87/40 107/125/41 124/146/42 111/130/43
f 107/125/41 84/95/21 114/136/24 124/146/42
f 124/146/42 114/136/24 77/84/29 96/110/44
f 111/130/43 124/146/42 96/110/44 74/77/45
f 83/94/25 109/127/46 125/147/47 116/138/26
f 109/127/46 80/89/48 110/128/49 125/147/47
f 125/147/47 110/128/49 75/80/50 97/112/51
f 116/138/26 125/147/47 97/112/51 76/83/27
f 77/84/29 95/109/28 126/148/4 96/111/44
f 95/109/28 76/83/27 97/113/51 126/148/4
f 126/148/4 97/113/51 75/81/50 94/107/52
f 96/111/44 126/148/4 94/107/52 74/78/45
f 71/73/13 87/99/10 127/149/53 112/132/54
f 87/99/10 70/72/9 113/135/35 127/149/53
f 127/149/53 113/135/35 78/85/39 101/119/55
f 112/132/54 127/149/53 101/119/55 81/91/56
f 73/76/17 93/106/33 128/150/57 117/139/58
f 93/106/33 71/74/13 112/133/54 128/150/57
f 128/150/57 112/133/54 81/92/56 108/126/59
f 117/139/58 128/150/57 108/126/59 82/93/60
f 72/75/20 91/104/18 129/151/61 115/137/36
f 91/104/18 73/76/17 117/139/58 129/151/61
f 129/151/61 117/139/58 82/93/60 105/123/62
f 115/137/36 129/151/61 105/123/62 85/96/37
f 79/88/40 99/116/63 130/152/64 98/114/65
f 99/116/63 80/90/48 100/117/66 130/152/64
f 130/152/64 100/117/66 81/91/56 101/119/55
f 98/114/65 130/152/64 101/119/55 78/85/39
f 83/94/25 103/121/22 131/153/67 102/120/68
f 103/121/22 84/95/21 104/122/69 131/153/67
f 131/153/67 104/122/69 85/96/37 105/123/62
f 102/120/68 131/153/67 105/123/62 82/93/60
f 78/86/39 106/124/38 132/154/70 98/115/65
f 106/124/38 85/96/37 104/122/69 132/154/70
f 132/154/70 104/122/69 84/95/21 107/125/41
f 98/115/65 132/154/70 107/125/41 79/87/40
f 82/93/60 108/126/59 133/155/71 102/120/68
f 108/126/59 81/92/56 100/118/66 133/155/71
f 133/155/71 100/118/66 80/89/48 109/127/46
f 102/120/68 133/155/71 109/127/46 83/94/25
f 80/90/48 99/116/63 134/156/72 110/129/49
f 99/116/63 79/88/40 111/131/43 134/156/72
f 134/156/72 111/131/43 74/79/45 94/108/52
f 110/129/49 134/156/72 94/108/52 75/82/50
