{
    "asset" : {
        "generator" : "Khronos glTF Blender I/O v3.3.27",
        "version" : "2.0"
    },
    "scene" : 0,
    "scenes" : [
        {
            "name" : "Scene",
            "nodes" : [
                0
            ]
        }
    ],
    "nodes" : [
        {
            "mesh" : 0,
            "name" : "Cube.089",
            "rotation" : [
                0.9105610847473145,
                0,
                -0.41337448358535767,
                0
            ],
            "scale" : [
                -3.0946457386016846,
                -1.443204402923584,
                -4.482457637786865
            ],
            "translation" : [
                10.409952163696289,
                -8.74605655670166,
                16.407398223876953
            ]
        }
    ],
    "materials" : [
        {
            "doubleSided" : true,
            "name" : "cream.032",
            "pbrMetallicRoughness" : {
                "baseColorFactor" : [
                    0.9999988079071045,
                    0.973444402217865,
                    0.8307698369026184,
                    1
                ],
                "metallicFactor" : 0
            }
        }
    ],
    "meshes" : [
        {
            "name" : "Cube.091",
            "primitives" : [
                {
                    "attributes" : {
                        "POSITION" : 0,
                        "NORMAL" : 1,
                        "TEXCOORD_0" : 2
                    },
                    "indices" : 3,
                    "material" : 0
                }
            ]
        }
    ],
    "accessors" : [
        {
            "bufferView" : 0,
            "componentType" : 5126,
            "count" : 6369,
            "max" : [
                0.8625444769859314,
                1.176447868347168,
                0.8400176763534546
            ],
            "min" : [
                -0.849083662033081,
                -0.8250832557678223,
                -0.8568889498710632
            ],
            "type" : "VEC3"
        },
        {
            "bufferView" : 1,
            "componentType" : 5126,
            "count" : 6369,
            "type" : "VEC3"
        },
        {
            "bufferView" : 2,
            "componentType" : 5126,
            "count" : 6369,
            "type" : "VEC2"
        },
        {
            "bufferView" : 3,
            "componentType" : 5123,
            "count" : 36864,
            "type" : "SCALAR"
        }
    ],
    "bufferViews" : [
        {
            "buffer" : 0,
            "byteLength" : 76428,
            "byteOffset" : 0,
            "target" : 34962
        },
        {
            "buffer" : 0,
            "byteLength" : 76428,
            "byteOffset" : 76428,
            "target" : 34962
        },
        {
            "buffer" : 0,
            "byteLength" : 50952,
            "byteOffset" : 152856,
            "target" : 34962
        },
        {
            "buffer" : 0,
            "byteLength" : 73728,
            "byteOffset" : 203808,
            "target" : 34963
        }
    ],
    "buffers" : [
        {
            "byteLength" : 277536,
            "uri" : "data:application/octet-stream;base64,"
        }
    ]
}
