{
    "asset" : {
        "generator" : "Khronos glTF Blender I/O v3.3.27",
        "version" : "2.0"
    },
    "scene" : 0,
    "scenes" : [
        {
            "name" : "Scene",
            "nodes" : [
                0,
                1,
                2,
                3,
                4,
                5,
                6,
                7,
                8
            ]
        }
    ],
    "nodes" : [
        {
            "mesh" : 0,
            "name" : "Head",
            "translation" : [
                0.0013335631228983402,
                0.4891815185546875,
                0.009449728764593601
            ]
        },
        {
            "mesh" : 1,
            "name" : "Body",
            "scale" : [
                0.5675894021987915,
                0.5675894021987915,
                0.5675894021987915
            ],
            "translation" : [
                0.020316999405622482,
                -1.7918212413787842,
                0.01748380996286869
            ]
        },
        {
            "mesh" : 2,
            "name" : "Sphere",
            "scale" : [
                -0.29458537697792053,
                -0.32196083664894104,
                -0.2764750123023987
            ],
            "translation" : [
                0.0065691000781953335,
                -1.1779441833496094,
                0.3426980674266815
            ]
        },
        {
            "mesh" : 3,
            "name" : "Sphere.001",
            "rotation" : [
                0,
                1,
                0,
                0
            ],
            "scale" : [
                0.168464794754982,
                0.21445219218730927,
                0.18942177295684814
            ],
            "translation" : [
                0.7556756734848022,
                0.9565010666847229,
                0.3078972101211548
            ]
        },
        {
            "mesh" : 4,
            "name" : "Sphere.002",
            "rotation" : [
                0.11161542683839798,
                -0.9730886816978455,
                0.17319202423095703,
                0.10317427664995193
            ],
            "scale" : [
                0.168464794754982,
                0.21445219218730927,
                0.18942177295684814
            ],
            "translation" : [
                -0.757683515548706,
                0.9494500756263733,
                0.276231974363327
            ]
        },
        {
            "mesh" : 5,
            "name" : "Sphere.003",
            "rotation" : [
                0,
                1,
                0,
                0
            ],
            "scale" : [
                -0.076946921646595,
                -0.09795183688402176,
                -0.08651909977197647
            ],
            "translation" : [
                -0.7725366950035095,
                0.9252443313598633,
                0.4474601447582245
            ]
        },
        {
            "mesh" : 6,
            "name" : "Sphere.004",
            "rotation" : [
                0,
                1,
                0,
                0
            ],
            "scale" : [
                -0.076946921646595,
                -0.09795183688402176,
                -0.08651909977197647
            ],
            "translation" : [
                0.7378820776939392,
                0.9400796890258789,
                0.44705480337142944
            ]
        },
        {
            "name" : "BezierCurve"
        },
        {
            "mesh" : 7,
            "name" : "Vert",
            "scale" : [
                0.4781314730644226,
                0.4781314730644226,
                0.4781314730644226
            ],
            "translation" : [
                0.025399446487426758,
                -0.17934787273406982,
                0.6119064092636108
            ]
        }
    ],
    "materials" : [
        {
            "doubleSided" : true,
            "name" : "Body.004",
            "pbrMetallicRoughness" : {
                "baseColorFactor" : [
                    0.2383970022201538,
                    0.610495388507843,
                    0.31854692101478577,
                    1
                ],
                "metallicFactor" : 0,
                "roughnessFactor" : 0
            }
        },
        {
            "doubleSided" : true,
            "name" : "Body.005",
            "pbrMetallicRoughness" : {
                "baseColorFactor" : [
                    0.2383970022201538,
                    0.610495388507843,
                    0.31854692101478577,
                    1
                ],
                "metallicFactor" : 0,
                "roughnessFactor" : 0
            }
        },
        {
            "doubleSided" : true,
            "name" : "Stomach.002",
            "pbrMetallicRoughness" : {
                "baseColorFactor" : [
                    0.09887153655290604,
                    0.4109320044517517,
                    0.15125761926174164,
                    1
                ],
                "metallicFactor" : 0,
                "roughnessFactor" : 0
            }
        },
        {
            "doubleSided" : true,
            "name" : "Right Eye.002",
            "pbrMetallicRoughness" : {
                "baseColorFactor" : [
                    0.800000011920929,
                    0.800000011920929,
                    0.800000011920929,
                    1
                ],
                "metallicFactor" : 0,
                "roughnessFactor" : 0
            }
        },
        {
            "doubleSided" : true,
            "name" : "Eye Left.002",
            "pbrMetallicRoughness" : {
                "metallicFactor" : 0,
                "roughnessFactor" : 0
            }
        },
        {
            "doubleSided" : true,
            "name" : "Pupil left eye.002",
            "pbrMetallicRoughness" : {
                "baseColorFactor" : [
                    0,
                    0,
                    0,
                    1
                ],
                "metallicFactor" : 0,
                "roughnessFactor" : 0
            }
        },
        {
            "doubleSided" : true,
            "name" : "Pupil Right Eye.002",
            "pbrMetallicRoughness" : {
                "baseColorFactor" : [
                    0,
                    0,
                    0,
                    1
                ],
                "metallicFactor" : 0,
                "roughnessFactor" : 0
            }
        },
        {
            "doubleSided" : true,
            "name" : "Smile.002",
            "pbrMetallicRoughness" : {
                "metallicFactor" : 0,
                "roughnessFactor" : 0
            }
        }
    ],
    "meshes" : [
        {
            "name" : "Roundcube.004",
            "primitives" : [
                {
                    "attributes" : {
                        "POSITION" : 0,
                        "NORMAL" : 1
                    },
                    "indices" : 2,
                    "material" : 0
                }
            ]
        },
        {
            "name" : "Roundcube.005",
            "primitives" : [
                {
                    "attributes" : {
                        "POSITION" : 3,
                        "NORMAL" : 4
                    },
                    "indices" : 5,
                    "material" : 1
                }
            ]
        },
        {
            "name" : "Sphere.010",
            "primitives" : [
                {
                    "attributes" : {
                        "POSITION" : 6,
                        "NORMAL" : 7,
                        "TEXCOORD_0" : 8
                    },
                    "indices" : 9,
                    "material" : 2
                }
            ]
        },
        {
            "name" : "Sphere.011",
            "primitives" : [
                {
                    "attributes" : {
                        "POSITION" : 10,
                        "NORMAL" : 11,
                        "TEXCOORD_0" : 12
                    },
                    "indices" : 9,
                    "material" : 3
                }
            ]
        },
        {
            "name" : "Sphere.012",
            "primitives" : [
                {
                    "attributes" : {
                        "POSITION" : 13,
                        "NORMAL" : 14,
                        "TEXCOORD_0" : 15
                    },
                    "indices" : 9,
                    "material" : 4
                }
            ]
        },
        {
            "name" : "Sphere.013",
            "primitives" : [
                {
                    "attributes" : {
                        "POSITION" : 16,
                        "NORMAL" : 17,
                        "TEXCOORD_0" : 18
                    },
                    "indices" : 9,
                    "material" : 5
                }
            ]
        },
        {
            "name" : "Sphere.014",
            "primitives" : [
                {
                    "attributes" : {
                        "POSITION" : 19,
                        "NORMAL" : 20,
                        "TEXCOORD_0" : 21
                    },
                    "indices" : 9,
                    "material" : 6
                }
            ]
        },
        {
            "name" : "Vert.002",
            "primitives" : [
                {
                    "attributes" : {
                        "POSITION" : 22,
                        "NORMAL" : 23,
                        "TEXCOORD_0" : 24
                    },
                    "indices" : 25,
                    "material" : 7
                }
            ]
        }
    ],
    "accessors" : [
        {
            "bufferView" : 0,
            "componentType" : 5126,
            "count" : 462,
            "max" : [
                1.1774070262908936,
                0.8578028678894043,
                0.9506022334098816
            ],
            "min" : [
                -1.180902361869812,
                -1.310270071029663,
                -0.9707338213920593
            ],
            "type" : "VEC3"
        },
        {
            "bufferView" : 1,
            "componentType" : 5126,
            "count" : 462,
            "type" : "VEC3"
        },
        {
            "bufferView" : 2,
            "componentType" : 5123,
            "count" : 2760,
            "type" : "SCALAR"
        },
        {
            "bufferView" : 3,
            "componentType" : 5126,
            "count" : 391,
            "max" : [
                1.9334492683410645,
                1.9484169483184814,
                0.9707905650138855
            ],
            "min" : [
                -1.9334492683410645,
                -1.1791369915008545,
                -1.0292046070098877
            ],
            "type" : "VEC3"
        },
        {
            "bufferView" : 4,
            "componentType" : 5126,
            "count" : 391,
            "type" : "VEC3"
        },
        {
            "bufferView" : 5,
            "componentType" : 5123,
            "count" : 2046,
            "type" : "SCALAR"
        },
        {
            "bufferView" : 6,
            "componentType" : 5126,
            "count" : 559,
            "max" : [
                1.018162727355957,
                1,
                0.9999993443489075
            ],
            "min" : [
                -0.9818360209465027,
                -1,
                -1
            ],
            "type" : "VEC3"
        },
        {
            "bufferView" : 7,
            "componentType" : 5126,
            "count" : 559,
            "type" : "VEC3"
        },
        {
            "bufferView" : 8,
            "componentType" : 5126,
            "count" : 559,
            "type" : "VEC2"
        },
        {
            "bufferView" : 9,
            "componentType" : 5123,
            "count" : 2880,
            "type" : "SCALAR"
        },
        {
            "bufferView" : 10,
            "componentType" : 5126,
            "count" : 559,
            "max" : [
                1.018162727355957,
                1,
                0.9999993443489075
            ],
            "min" : [
                -0.9818360209465027,
                -1,
                -1
            ],
            "type" : "VEC3"
        },
        {
            "bufferView" : 11,
            "componentType" : 5126,
            "count" : 559,
            "type" : "VEC3"
        },
        {
            "bufferView" : 12,
            "componentType" : 5126,
            "count" : 559,
            "type" : "VEC2"
        },
        {
            "bufferView" : 13,
            "componentType" : 5126,
            "count" : 559,
            "max" : [
                1.018162727355957,
                1,
                0.9999993443489075
            ],
            "min" : [
                -0.9818360209465027,
                -1,
                -1
            ],
            "type" : "VEC3"
        },
        {
            "bufferView" : 14,
            "componentType" : 5126,
            "count" : 559,
            "type" : "VEC3"
        },
        {
            "bufferView" : 15,
            "componentType" : 5126,
            "count" : 559,
            "type" : "VEC2"
        },
        {
            "bufferView" : 16,
            "componentType" : 5126,
            "count" : 559,
            "max" : [
                1.018162727355957,
                1,
                0.9999993443489075
            ],
            "min" : [
                -0.9818360209465027,
                -1,
                -1
            ],
            "type" : "VEC3"
        },
        {
            "bufferView" : 17,
            "componentType" : 5126,
            "count" : 559,
            "type" : "VEC3"
        },
        {
            "bufferView" : 18,
            "componentType" : 5126,
            "count" : 559,
            "type" : "VEC2"
        },
        {
            "bufferView" : 19,
            "componentType" : 5126,
            "count" : 559,
            "max" : [
                1.018162727355957,
                1,
                0.9999993443489075
            ],
            "min" : [
                -0.9818360209465027,
                -1,
                -1
            ],
            "type" : "VEC3"
        },
        {
            "bufferView" : 20,
            "componentType" : 5126,
            "count" : 559,
            "type" : "VEC3"
        },
        {
            "bufferView" : 21,
            "componentType" : 5126,
            "count" : 559,
            "type" : "VEC2"
        },
        {
            "bufferView" : 22,
            "componentType" : 5126,
            "count" : 1340,
            "max" : [
                0.9765818119049072,
                0.6511748433113098,
                0.980350911617279
            ],
            "min" : [
                -0.9849882125854492,
                -0.3488251566886902,
                -0.9812192916870117
            ],
            "type" : "VEC3"
        },
        {
            "bufferView" : 23,
            "componentType" : 5126,
            "count" : 1340,
            "type" : "VEC3"
        },
        {
            "bufferView" : 24,
            "componentType" : 5126,
            "count" : 1340,
            "type" : "VEC2"
        },
        {
            "bufferView" : 25,
            "componentType" : 5123,
            "count" : 1344,
            "type" : "SCALAR"
        }
    ],
    "bufferViews" : [
        {
            "buffer" : 0,
            "byteLength" : 5544,
            "byteOffset" : 0,
            "target" : 34962
        },
        {
            "buffer" : 0,
            "byteLength" : 5544,
            "byteOffset" : 5544,
            "target" : 34962
        },
        {
            "buffer" : 0,
            "byteLength" : 5520,
            "byteOffset" : 11088,
            "target" : 34963
        },
        {
            "buffer" : 0,
            "byteLength" : 4692,
            "byteOffset" : 16608,
            "target" : 34962
        },
        {
            "buffer" : 0,
            "byteLength" : 4692,
            "byteOffset" : 21300,
            "target" : 34962
        },
        {
            "buffer" : 0,
            "byteLength" : 4092,
            "byteOffset" : 25992,
            "target" : 34963
        },
        {
            "buffer" : 0,
            "byteLength" : 6708,
            "byteOffset" : 30084,
            "target" : 34962
        },
        {
            "buffer" : 0,
            "byteLength" : 6708,
            "byteOffset" : 36792,
            "target" : 34962
        },
        {
            "buffer" : 0,
            "byteLength" : 4472,
            "byteOffset" : 43500,
            "target" : 34962
        },
        {
            "buffer" : 0,
            "byteLength" : 5760,
            "byteOffset" : 47972,
            "target" : 34963
        },
        {
            "buffer" : 0,
            "byteLength" : 6708,
            "byteOffset" : 53732,
            "target" : 34962
        },
        {
            "buffer" : 0,
            "byteLength" : 6708,
            "byteOffset" : 60440,
            "target" : 34962
        },
        {
            "buffer" : 0,
            "byteLength" : 4472,
            "byteOffset" : 67148,
            "target" : 34962
        },
        {
            "buffer" : 0,
            "byteLength" : 6708,
            "byteOffset" : 71620,
            "target" : 34962
        },
        {
            "buffer" : 0,
            "byteLength" : 6708,
            "byteOffset" : 78328,
            "target" : 34962
        },
        {
            "buffer" : 0,
            "byteLength" : 4472,
            "byteOffset" : 85036,
            "target" : 34962
        },
        {
            "buffer" : 0,
            "byteLength" : 6708,
            "byteOffset" : 89508,
            "target" : 34962
        },
        {
            "buffer" : 0,
            "byteLength" : 6708,
            "byteOffset" : 96216,
            "target" : 34962
        },
        {
            "buffer" : 0,
            "byteLength" : 4472,
            "byteOffset" : 102924,
            "target" : 34962
        },
        {
            "buffer" : 0,
            "byteLength" : 6708,
            "byteOffset" : 107396,
            "target" : 34962
        },
        {
            "buffer" : 0,
            "byteLength" : 6708,
            "byteOffset" : 114104,
            "target" : 34962
        },
        {
            "buffer" : 0,
            "byteLength" : 4472,
            "byteOffset" : 120812,
            "target" : 34962
        },
        {
            "buffer" : 0,
            "byteLength" : 16080,
            "byteOffset" : 125284,
            "target" : 34962
        },
        {
            "buffer" : 0,
            "byteLength" : 16080,
            "byteOffset" : 141364,
            "target" : 34962
        },
        {
            "buffer" : 0,
            "byteLength" : 10720,
            "byteOffset" : 157444,
            "target" : 34962
        },
        {
            "buffer" : 0,
            "byteLength" : 2688,
            "byteOffset" : 168164,
            "target" : 34963
        }
    ],
    "buffers" : [
        {
            "byteLength" : 170852,
            "uri" : "data:application/octet-stream;base64,"
        }
    ]
}
