{
    "asset" : {
        "generator" : "Khronos glTF Blender I/O v3.3.27",
        "version" : "2.0"
    },
    "scene" : 0,
    "scenes" : [
        {
            "name" : "Scene",
            "nodes" : [
                0
            ]
        }
    ],
    "nodes" : [
        {
            "mesh" : 0,
            "name" : "Cube.098",
            "scale" : [
                99.45372772216797,
                24.235088348388672,
                99.45372772216797
            ],
            "translation" : [
                0,
                -40.55111312866211,
                0
            ]
        }
    ],
    "materials" : [
        {
            "doubleSided" : true,
            "name" : "WHITE.002",
            "pbrMetallicRoughness" : {
                "baseColorFactor" : [
                    0.9999988079071045,
                    0.973444402217865,
                    0.8307698369026184,
                    1
                ],
                "metallicFactor" : 0,
                "roughnessFactor" : 0
            }
        }
    ],
    "meshes" : [
        {
            "name" : "Cube.085",
            "primitives" : [
                {
                    "attributes" : {
                        "POSITION" : 0,
                        "NORMAL" : 1,
                        "TEXCOORD_0" : 2
                    },
                    "indices" : 3,
                    "material" : 0
                }
            ]
        }
    ],
    "accessors" : [
        {
            "bufferView" : 0,
            "componentType" : 5126,
            "count" : 1331,
            "max" : [
                0.8628014326095581,
                1.177320957183838,
                0.839937150478363
            ],
            "min" : [
                -0.8487162590026855,
                -0.8257189393043518,
                -0.8577427268028259
            ],
            "type" : "VEC3"
        },
        {
            "bufferView" : 1,
            "componentType" : 5126,
            "count" : 1331,
            "type" : "VEC3"
        },
        {
            "bufferView" : 2,
            "componentType" : 5126,
            "count" : 1331,
            "type" : "VEC2"
        },
        {
            "bufferView" : 3,
            "componentType" : 5123,
            "count" : 7368,
            "type" : "SCALAR"
        }
    ],
    "bufferViews" : [
        {
            "buffer" : 0,
            "byteLength" : 15972,
            "byteOffset" : 0,
            "target" : 34962
        },
        {
            "buffer" : 0,
            "byteLength" : 15972,
            "byteOffset" : 15972,
            "target" : 34962
        },
        {
            "buffer" : 0,
            "byteLength" : 10648,
            "byteOffset" : 31944,
            "target" : 34962
        },
        {
            "buffer" : 0,
            "byteLength" : 14736,
            "byteOffset" : 42592,
            "target" : 34963
        }
    ],
    "buffers" : [
        {
            "byteLength" : 57328,
            "uri" : "data:application/octet-stream;base64,"
        }
    ]
}
