{
    "asset" : {
        "generator" : "Khronos glTF Blender I/O v3.3.27",
        "version" : "2.0"
    },
    "scene" : 0,
    "scenes" : [
        {
            "name" : "Scene",
            "nodes" : [
                0,
                1,
                2
            ]
        }
    ],
    "nodes" : [
        {
            "mesh" : 0,
            "name" : "Tree2",
            "scale" : [
                -0.4074055850505829,
                -0.4074055850505829,
                -0.4074055850505829
            ],
            "translation" : [
                -15.797011375427246,
                6.805985927581787,
                -3.110581636428833
            ]
        },
        {
            "mesh" : 1,
            "name" : "Tree2.001",
            "scale" : [
                -0.4074055850505829,
                -0.4074055850505829,
                -0.4074055850505829
            ],
            "translation" : [
                -15.797011375427246,
                6.805985927581787,
                -3.110581636428833
            ]
        },
        {
            "mesh" : 2,
            "name" : "Tree2.002",
            "scale" : [
                -0.4074055850505829,
                -0.4074055850505829,
                -0.4074055850505829
            ],
            "translation" : [
                -15.797011375427246,
                6.805985927581787,
                -3.110581636428833
            ]
        }
    ],
    "materials" : [
        {
            "doubleSided" : true,
            "name" : "Green.003",
            "pbrMetallicRoughness" : {
                "baseColorFactor" : [
                    0.550845742225647,
                    1,
                    0.4732726514339447,
                    1
                ],
                "metallicFactor" : 0,
                "roughnessFactor" : 0
            }
        },
        {
            "doubleSided" : true,
            "name" : "Fruit.003",
            "pbrMetallicRoughness" : {
                "baseColorFactor" : [
                    0.9403867721557617,
                    0.5009164214134216,
                    0.7964143753051758,
                    1
                ],
                "metallicFactor" : 0,
                "roughnessFactor" : 0
            }
        },
        {
            "doubleSided" : true,
            "name" : "Wood.003",
            "pbrMetallicRoughness" : {
                "baseColorFactor" : [
                    1,
                    0.5585626363754272,
                    0.20459726452827454,
                    1
                ],
                "metallicFactor" : 0,
                "roughnessFactor" : 0
            }
        }
    ],
    "meshes" : [
        {
            "name" : "Icosphere.007",
            "primitives" : [
                {
                    "attributes" : {
                        "POSITION" : 0,
                        "NORMAL" : 1,
                        "TEXCOORD_0" : 2
                    },
                    "indices" : 3,
                    "material" : 0
                }
            ]
        },
        {
            "name" : "Icosphere.008",
            "primitives" : [
                {
                    "attributes" : {
                        "POSITION" : 4,
                        "NORMAL" : 5,
                        "TEXCOORD_0" : 6
                    },
                    "indices" : 7,
                    "material" : 1
                }
            ]
        },
        {
            "name" : "Icosphere.009",
            "primitives" : [
                {
                    "attributes" : {
                        "POSITION" : 8,
                        "NORMAL" : 9,
                        "TEXCOORD_0" : 10
                    },
                    "indices" : 11,
                    "material" : 2
                }
            ]
        }
    ],
    "accessors" : [
        {
            "bufferView" : 0,
            "componentType" : 5126,
            "count" : 5274,
            "max" : [
                8.907105445861816,
                3.086899995803833,
                4.686304569244385
            ],
            "min" : [
                -19.988750457763672,
                -9.97710132598877,
                -9.310224533081055
            ],
            "type" : "VEC3"
        },
        {
            "bufferView" : 1,
            "componentType" : 5126,
            "count" : 5274,
            "type" : "VEC3"
        },
        {
            "bufferView" : 2,
            "componentType" : 5126,
            "count" : 5274,
            "type" : "VEC2"
        },
        {
            "bufferView" : 3,
            "componentType" : 5123,
            "count" : 5274,
            "type" : "SCALAR"
        },
        {
            "bufferView" : 4,
            "componentType" : 5126,
            "count" : 960,
            "max" : [
                9.546632766723633,
                3.4899070262908936,
                4.785611152648926
            ],
            "min" : [
                -19.459928512573242,
                -8.124824523925781,
                -9.007856369018555
            ],
            "type" : "VEC3"
        },
        {
            "bufferView" : 5,
            "componentType" : 5126,
            "count" : 960,
            "type" : "VEC3"
        },
        {
            "bufferView" : 6,
            "componentType" : 5126,
            "count" : 960,
            "type" : "VEC2"
        },
        {
            "bufferView" : 7,
            "componentType" : 5123,
            "count" : 960,
            "type" : "SCALAR"
        },
        {
            "bufferView" : 8,
            "componentType" : 5126,
            "count" : 2350,
            "max" : [
                3.639146327972412,
                18.310720443725586,
                -0.04839062690734863
            ],
            "min" : [
                -14.404136657714844,
                -6.122415542602539,
                -4.180245399475098
            ],
            "type" : "VEC3"
        },
        {
            "bufferView" : 9,
            "componentType" : 5126,
            "count" : 2350,
            "type" : "VEC3"
        },
        {
            "bufferView" : 10,
            "componentType" : 5126,
            "count" : 2350,
            "type" : "VEC2"
        },
        {
            "bufferView" : 11,
            "componentType" : 5123,
            "count" : 2472,
            "type" : "SCALAR"
        }
    ],
    "bufferViews" : [
        {
            "buffer" : 0,
            "byteLength" : 63288,
            "byteOffset" : 0,
            "target" : 34962
        },
        {
            "buffer" : 0,
            "byteLength" : 63288,
            "byteOffset" : 63288,
            "target" : 34962
        },
        {
            "buffer" : 0,
            "byteLength" : 42192,
            "byteOffset" : 126576,
            "target" : 34962
        },
        {
            "buffer" : 0,
            "byteLength" : 10548,
            "byteOffset" : 168768,
            "target" : 34963
        },
        {
            "buffer" : 0,
            "byteLength" : 11520,
            "byteOffset" : 179316,
            "target" : 34962
        },
        {
            "buffer" : 0,
            "byteLength" : 11520,
            "byteOffset" : 190836,
            "target" : 34962
        },
        {
            "buffer" : 0,
            "byteLength" : 7680,
            "byteOffset" : 202356,
            "target" : 34962
        },
        {
            "buffer" : 0,
            "byteLength" : 1920,
            "byteOffset" : 210036,
            "target" : 34963
        },
        {
            "buffer" : 0,
            "byteLength" : 28200,
            "byteOffset" : 211956,
            "target" : 34962
        },
        {
            "buffer" : 0,
            "byteLength" : 28200,
            "byteOffset" : 240156,
            "target" : 34962
        },
        {
            "buffer" : 0,
            "byteLength" : 18800,
            "byteOffset" : 268356,
            "target" : 34962
        },
        {
            "buffer" : 0,
            "byteLength" : 4944,
            "byteOffset" : 287156,
            "target" : 34963
        }
    ],
    "buffers" : [
        {
            "byteLength" : 292100,
            "uri" : "data:application/octet-stream;base64,"
        }
    ]
}
